<svg width="226" height="242" viewBox="0 0 226 242" fill="none" xmlns="http://www.w3.org/2000/svg">
<path d="M88.1732 14.6861C93.644 4.53607 102.475 -2.49788 115.578 1.72452C116.734 2.18896 117.945 2.4995 119.181 2.64817C120.438 2.57451 121.688 2.42537 122.927 2.20158C128.834 1.71438 133.199 7.43897 136.071 12.6155C141.41 22.2681 151.164 35.3718 149.266 46.9732C147.794 55.9661 139.339 62.1982 130.803 65.3447C121.178 68.8947 110.787 69.8435 100.678 68.0954C95.603 67.2225 90.3554 65.5173 86.7014 61.8328C81.6264 56.6969 80.6114 48.7901 80.9971 41.5328C81.5351 33.423 83.7173 22.9989 88.1732 14.6861Z" fill="white"/>
<path d="M110.533 69.4454C107.203 69.4452 103.878 69.1599 100.596 68.5928C94.1918 67.4966 89.5431 65.4057 86.3864 62.1983C81.9509 57.7425 79.9818 50.8405 80.5197 41.5837C81.0983 31.9818 83.7982 21.8419 87.7567 14.473C92.3952 5.84552 101.002 -3.45188 115.679 1.27802L116.38 1.52162C117.272 1.86795 118.208 2.08995 119.161 2.18137C119.891 2.18526 120.619 2.1104 121.333 1.95807C121.82 1.87687 122.348 1.78552 122.845 1.74492C127.707 1.32877 132.295 4.92187 136.436 12.3923C137.39 14.1178 138.466 15.9448 139.633 17.8834C144.82 26.5617 151.275 37.3613 149.682 47.0545C148.413 54.9005 141.42 61.904 130.935 65.7813C124.407 68.2072 117.498 69.4481 110.533 69.4454ZM88.6397 14.9095C84.7421 22.1667 82.0727 32.1645 81.5347 41.6344C80.9968 50.5867 82.8745 57.2857 87.0969 61.5487C90.1419 64.5937 94.6181 66.6237 100.82 67.6387C110.843 69.3639 121.144 68.4115 130.681 64.8779C140.831 61.1123 147.621 54.3727 148.85 46.8617C150.382 37.5135 144.028 26.8662 138.923 18.3097C137.766 16.3711 136.67 14.5441 135.705 12.8084C131.757 5.70342 127.484 2.26257 123.008 2.65842C122.531 2.65842 122.064 2.78022 121.576 2.86142C120.76 3.04293 119.926 3.13483 119.09 3.13547C118.045 3.04336 117.02 2.80063 116.045 2.41482L115.355 2.18137C101.287 -2.35568 93.0245 6.61692 88.5382 14.9298L88.6397 14.9095Z" fill="#231F20"/>
<path d="M222.904 159.83C222.904 159.83 171.139 85.3395 160.4 75.5853C144.952 61.6189 90.1218 58.7059 78.9873 61.5784C59.2963 66.6534 45.5938 97.4078 45.5938 97.4078L78.2565 107.172C78.3275 132.436 80.8549 158.937 80.8549 158.937L222.904 159.83Z" fill="#0157E4"/>
<path d="M55.4594 28.6816C55.5812 28.3365 55.3478 21.7796 53.5411 18.2677C51.7344 14.7558 51.9881 14.1468 53.4497 13.01C54.9113 11.8732 56.4947 13.01 58.748 15.8419C61.0013 18.6737 61.5697 23.0179 61.0115 26.1847L55.4594 28.6816Z" fill="white"/>
<path d="M55.4597 29.1916C55.3831 29.1908 55.3078 29.1727 55.2392 29.1386C55.1707 29.1045 55.1107 29.0553 55.0639 28.9948C55.017 28.9343 54.9844 28.8639 54.9686 28.789C54.9528 28.7141 54.9541 28.6366 54.9725 28.5623C55.0435 27.9635 54.7898 21.8024 53.0947 18.5037C51.3997 15.2049 51.3185 14.0174 53.1455 12.6065C55.2364 11.0028 57.3374 13.2663 59.1441 15.5297C61.5598 18.5747 62.0775 23.1016 61.5091 26.2786C61.493 26.3599 61.4579 26.4363 61.4068 26.5015C61.3556 26.5667 61.2898 26.619 61.2147 26.6541L55.6728 29.1409C55.6059 29.1719 55.5334 29.1892 55.4597 29.1916ZM54.6274 13.0836C54.31 13.0934 54.0055 13.2116 53.7646 13.4185C52.6075 14.3016 52.2218 14.6061 53.9879 18.0368C55.4901 20.9498 55.9469 25.8218 56.0179 27.8924L60.5854 25.8624C61.032 22.9291 60.5347 18.8792 58.3829 16.1793C56.5051 13.855 55.4292 13.0836 54.6274 13.0836Z" fill="#231F20"/>
<path d="M52.2927 51.9758C52.5261 51.6408 52.8611 28.0015 53.6528 27.4331C54.4445 26.8647 63.7216 24.043 67.7917 24.043C71.8619 24.043 72.8667 25.738 71.4153 27.3214C71.4153 27.3214 76.1655 29.4732 72.9987 33.5434C72.9987 33.5434 75.7087 36.3651 72.9987 39.0853C75.1911 42.0186 72.9987 45.764 70.6337 47.7737C67.8932 50.0473 63.9855 49.9965 64.0058 54.0159C64.0565 68.297 65.3354 82.7201 64.29 96.991C63.6099 106.268 58.2 119.615 48.5676 117.352C38.9353 115.088 38.2755 97.3361 41.0972 87.9169C43.9189 78.4977 52.2927 51.9758 52.2927 51.9758Z" fill="white"/>
<path d="M50.6991 118.115C49.9405 118.112 49.1846 118.023 48.4458 117.851C47.0979 117.498 45.8403 116.863 44.7556 115.988C43.6709 115.113 42.7838 114.019 42.1528 112.776C38.4176 106.321 38.4379 94.9935 40.61 87.7768C43.4114 78.4997 51.775 52.0691 51.775 51.8052C51.846 51.3891 51.9374 48.3644 52.0389 45.1773C52.5464 29.12 52.8103 27.3742 53.3178 27.0088C54.1602 26.4099 63.5794 23.5273 67.7511 23.5273C70.2378 23.5273 71.8821 24.1465 72.3693 25.2731C72.4951 25.5798 72.5396 25.9137 72.4987 26.2426C72.4578 26.5715 72.3329 26.8843 72.1359 27.1509C73.2403 27.7747 74.0672 28.7938 74.4501 30.003C74.5737 30.6128 74.5624 31.2423 74.4168 31.8473C74.2713 32.4522 73.9951 33.018 73.6076 33.5048C74.2852 34.2828 74.6584 35.2796 74.6584 36.3113C74.6584 37.3429 74.2852 38.3398 73.6076 39.1177C75.4549 42.0612 73.7091 45.837 70.9179 48.1512C70.0017 48.8609 69.0031 49.4573 67.9439 49.9275C65.9951 50.8714 64.4625 51.6225 64.4726 53.9875C64.4726 58.9102 64.6553 63.9446 64.8177 68.8166C65.2896 78.2068 65.2693 87.6152 64.7568 97.0032C64.2696 103.57 61.3972 112.37 56.2105 116.177C54.6305 117.4 52.6972 118.08 50.6991 118.115ZM52.7291 52.1402C52.3535 53.3379 44.2843 78.9565 41.5641 88.061C39.4529 95.0747 39.4224 106.037 43.0155 112.259C43.5798 113.376 44.3746 114.36 45.3474 115.148C46.3201 115.935 47.4488 116.507 48.6589 116.826C49.8543 117.127 51.1026 117.152 52.309 116.899C53.5154 116.645 54.6483 116.121 55.6218 115.365C60.5547 111.741 63.2952 103.266 63.7418 96.9322C64.2543 87.578 64.2746 78.2034 63.8027 68.8471C63.6403 63.9751 63.4678 58.9305 63.4576 53.9875C63.4576 50.9425 65.4876 49.9275 67.5176 48.9937C68.5045 48.5599 69.435 48.0078 70.2886 47.3494C72.3186 45.6543 74.6429 42.1221 72.5723 39.3613C72.4929 39.2678 72.4494 39.1491 72.4494 39.0264C72.4494 38.9037 72.4929 38.785 72.5723 38.6914C74.8967 36.3772 72.6637 33.9615 72.5723 33.86C72.4937 33.7681 72.4505 33.6511 72.4505 33.5302C72.4505 33.4092 72.4937 33.2922 72.5723 33.2003C72.9433 32.8105 73.2188 32.34 73.3773 31.8257C73.5358 31.3115 73.573 30.7675 73.4858 30.2365C73.0745 29.137 72.2468 28.2436 71.1818 27.7497C71.1086 27.7189 71.0442 27.6702 70.9946 27.6082C70.945 27.5461 70.9116 27.4727 70.8976 27.3945C70.881 27.3157 70.8834 27.2341 70.9046 27.1565C70.9258 27.0788 70.9651 27.0073 71.0194 26.9479C71.2731 26.6738 71.669 26.1359 71.466 25.6588C71.263 25.1818 70.1262 24.522 67.7714 24.522C63.8636 24.522 55.1346 27.1915 54.008 27.77C53.5817 29.0794 53.2569 39.5237 53.0742 45.1874C52.9016 51.1353 52.861 51.927 52.7697 52.1706L52.7291 52.1402Z" fill="#231F20"/>
<path d="M63.9448 29.1918C63.8102 29.212 63.6731 29.1779 63.5636 29.097C63.4542 29.0161 63.3813 28.895 63.3611 28.7604C63.341 28.6258 63.3751 28.4887 63.456 28.3793C63.5369 28.2698 63.6579 28.197 63.7925 28.1768C66.2934 27.5703 68.8288 27.1161 71.3847 26.8167C71.5179 26.7994 71.6526 26.8357 71.7591 26.9175C71.8657 26.9993 71.9354 27.12 71.9531 27.2532C71.9631 27.3193 71.9596 27.3868 71.9429 27.4516C71.9262 27.5164 71.8965 27.5771 71.8558 27.6302C71.815 27.6833 71.764 27.7276 71.7058 27.7605C71.6475 27.7933 71.5832 27.8141 71.5167 27.8216C69.034 28.1306 66.5705 28.5779 64.1376 29.1614C64.0768 29.1871 64.0106 29.1975 63.9448 29.1918Z" fill="#231F20"/>
<path d="M64.9091 35.291C64.7745 35.3179 64.6347 35.2902 64.5205 35.2141C64.4063 35.1379 64.327 35.0196 64.3001 34.885C64.2732 34.7504 64.3008 34.6106 64.377 34.4964C64.4531 34.3822 64.5715 34.3029 64.7061 34.276C67.0304 33.261 72.7347 33.0072 72.9682 32.9971C73.0349 32.9929 73.1017 33.002 73.1648 33.0238C73.228 33.0456 73.2862 33.0796 73.3362 33.1239C73.3862 33.1682 73.4269 33.222 73.4561 33.2821C73.4853 33.3422 73.5023 33.4074 73.5061 33.4741C73.5117 33.6098 73.4637 33.7421 73.3726 33.8428C73.2815 33.9434 73.1545 34.0042 73.0189 34.0121C72.9682 34.0121 67.2639 34.2963 65.1121 35.2098C65.0515 35.2519 64.982 35.2796 64.9091 35.291Z" fill="#231F20"/>
<path d="M66.9492 41.1159C66.8473 41.1175 66.7472 41.0883 66.6621 41.0321C66.5771 40.976 66.5109 40.8956 66.4721 40.8013C66.4243 40.6772 66.4261 40.5394 66.4771 40.4166C66.5281 40.2937 66.6245 40.1952 66.7462 40.1415C68.7431 39.3954 70.816 38.8713 72.9275 38.5784C73.0607 38.5612 73.1954 38.5974 73.3019 38.6792C73.4085 38.761 73.4782 38.8817 73.4959 39.0149C73.5059 39.0811 73.5024 39.1486 73.4857 39.2133C73.469 39.2781 73.4394 39.3389 73.3986 39.3919C73.3579 39.445 73.3068 39.4893 73.2485 39.5222C73.1903 39.5551 73.126 39.5759 73.0595 39.5833C71.0395 39.8685 69.0558 40.3687 67.142 41.0753C67.0814 41.1024 67.0156 41.1163 66.9492 41.1159Z" fill="#231F20"/>
<path d="M76.7747 137.246C76.7066 137.241 76.6402 137.222 76.5794 137.191C76.5185 137.16 76.4644 137.118 76.42 137.066C76.3757 137.014 76.342 136.954 76.321 136.889C76.3 136.824 76.2921 136.756 76.2976 136.688L80.7129 78.8326C80.718 78.7632 80.7368 78.6956 80.7682 78.6335C80.7996 78.5714 80.8429 78.5161 80.8957 78.4708C80.9486 78.4255 81.0098 78.3912 81.076 78.3696C81.1422 78.3481 81.2119 78.3399 81.2813 78.3454C81.3503 78.3505 81.4175 78.3694 81.4791 78.4009C81.5407 78.4324 81.5953 78.4759 81.6398 78.5289C81.6843 78.5819 81.7177 78.6432 81.738 78.7094C81.7584 78.7755 81.7653 78.845 81.7583 78.9138L77.3431 136.769C77.338 136.838 77.3191 136.905 77.2876 136.967C77.2561 137.028 77.2126 137.083 77.1596 137.127C77.1066 137.172 77.0452 137.205 76.9791 137.226C76.913 137.246 76.8435 137.253 76.7747 137.246Z" fill="#231F20"/>
<path d="M106.707 81.9092C110.371 86.4665 115.842 89.7145 121.739 89.8059C122.503 89.8482 123.267 89.7449 123.992 89.5014C124.985 89.0769 125.832 88.3713 126.428 87.4714C129.088 83.8174 129.199 78.8946 128.529 74.4286C128.052 71.2923 127.139 68.0037 124.764 65.9026C121.973 63.4362 117.923 63.2027 114.198 63.1012C110.473 62.9997 101.835 61.9137 100.455 66.5015C99.1655 70.6934 104.251 78.854 106.707 81.9092Z" fill="#231F20"/>
<path d="M121.963 90.2511H121.729C116.096 90.1597 110.351 87.1452 106.362 82.192C103.713 78.9034 98.6886 70.7225 100.018 66.3682C101.348 62.0138 108.443 62.3081 112.665 62.572L114.218 62.6431C118.329 62.7649 122.247 63.0694 125.058 65.5561C127.87 68.0429 128.57 71.7172 128.966 74.3562C129.829 80.0605 129.098 84.5062 126.794 87.7237C126.154 88.7024 125.234 89.4663 124.155 89.9161C123.451 90.161 122.708 90.2746 121.963 90.2511ZM109.204 63.3536C105.631 63.3536 101.723 63.8712 100.881 66.632C99.6529 70.6007 104.606 78.5887 107.052 81.6337C110.879 86.3839 116.37 89.2665 121.739 89.3579C122.45 89.3951 123.162 89.3022 123.84 89.0838C124.754 88.6873 125.53 88.0307 126.073 87.1959C128.225 84.2321 128.905 79.9489 128.103 74.4882C127.728 71.9811 126.946 68.3982 124.49 66.2261C122.034 64.054 118.146 63.648 114.208 63.5363C113.751 63.5363 113.193 63.5363 112.645 63.4653C111.61 63.4145 110.422 63.3536 109.204 63.3536Z" fill="#231F20"/>
<path d="M130.417 34.9974C130.792 33.7323 131.428 32.5601 132.285 31.5566C132.724 31.0628 133.304 30.716 133.947 30.5635C134.59 30.411 135.264 30.46 135.878 30.704C136.305 30.9583 136.663 31.3132 136.922 31.7378C137.18 32.1624 137.33 32.6438 137.36 33.14C137.41 34.1381 137.244 35.1353 136.873 36.0632C136.308 37.8276 135.33 39.4318 134.02 40.7423C133.37 41.3935 132.593 41.9049 131.738 42.2452C130.883 42.5856 129.967 42.7477 129.047 42.7216" fill="white"/>
<path d="M129.433 43.1166H129.017C128.91 43.1063 128.811 43.0552 128.741 42.9739C128.671 42.8925 128.635 42.7873 128.641 42.6802C128.644 42.6263 128.657 42.5736 128.681 42.5251C128.704 42.4766 128.738 42.4335 128.778 42.3983C128.819 42.3631 128.867 42.3367 128.918 42.3206C128.97 42.3045 129.024 42.2991 129.078 42.3046C129.946 42.3343 130.81 42.1856 131.619 41.8679C132.427 41.5502 133.162 41.0701 133.777 40.4573C135.039 39.1927 135.979 37.6437 136.518 35.9406C136.872 35.0687 137.031 34.1299 136.985 33.19C136.96 32.7578 136.83 32.3382 136.605 31.9683C136.38 31.5983 136.068 31.2894 135.695 31.0686C135.158 30.8659 134.571 30.8311 134.013 30.9689C133.454 31.1066 132.951 31.4103 132.569 31.84C131.761 32.8126 131.157 33.9379 130.793 35.1489C130.775 35.1987 130.747 35.2444 130.711 35.2832C130.675 35.322 130.632 35.3533 130.584 35.375C130.535 35.3968 130.483 35.4087 130.43 35.4099C130.377 35.4112 130.325 35.4018 130.275 35.3823C130.175 35.3457 130.093 35.2707 130.047 35.1737C130.001 35.0767 129.996 34.9657 130.032 34.8647C130.429 33.5424 131.1 32.3183 132.001 31.2716C132.501 30.7189 133.158 30.3337 133.885 30.1684C134.611 30.0031 135.371 30.0658 136.061 30.348C136.555 30.6285 136.972 31.0279 137.273 31.5099C137.574 31.9919 137.751 32.5414 137.786 33.1087C137.842 34.1487 137.669 35.1882 137.279 36.1537C136.703 37.9982 135.686 39.6741 134.315 41.0359C133.011 42.3244 131.266 43.0683 129.433 43.1166Z" fill="#231F20"/>
<path d="M123.444 52.5957L125.017 68.247C125.017 68.247 124.256 77.1485 114.472 75.352C111.598 74.7971 108.883 73.6116 106.522 71.8811C104.161 70.1505 102.214 67.9179 100.82 65.3441L101.185 37.259C101.124 36.1121 103.51 32.184 102.383 22.2573C105.737 21.9143 108.983 20.8761 111.914 19.2089C114.844 17.5417 117.396 15.2821 119.404 12.5742C119.404 12.5742 123.942 18.177 125.85 19.9127C127.381 21.1948 128.745 22.6645 129.91 24.2873C132.955 28.8548 132.823 36.3049 132.092 41.5423C131.381 45.8459 128.885 52.7073 123.444 52.5957Z" fill="white"/>
<path d="M116.918 76.0828C116.07 76.0772 115.224 75.9957 114.39 75.8392C111.436 75.2627 108.645 74.0402 106.219 72.2592C103.792 70.4781 101.789 68.1826 100.353 65.537C100.338 65.4701 100.338 65.4008 100.353 65.334C100.353 65.334 100.718 37.4316 100.718 37.2591C100.761 36.7572 100.866 36.2626 101.033 35.7873C101.601 33.8385 102.769 29.7785 101.926 22.3081C101.92 22.2483 101.925 22.1879 101.943 22.1303C101.96 22.0727 101.989 22.0193 102.028 21.9732C102.062 21.9235 102.108 21.8823 102.16 21.8524C102.213 21.8226 102.272 21.8049 102.332 21.8006C105.615 21.4554 108.791 20.435 111.661 18.8036C114.531 17.1722 117.033 14.9649 119.009 12.3205C119.05 12.2612 119.105 12.2121 119.168 12.1769C119.231 12.1417 119.302 12.1214 119.374 12.1175C119.447 12.1147 119.52 12.1289 119.587 12.1588C119.654 12.1887 119.713 12.2336 119.76 12.2901C119.76 12.2901 124.297 17.8827 126.164 19.5676C127.7 20.8793 129.065 22.3799 130.224 24.0336C133.736 29.3522 132.965 38.0711 132.478 41.5728C131.889 45.7648 129.433 52.7378 123.982 53.0525L125.495 68.2064C125.252 70.6402 124.064 72.8816 122.186 74.4487C120.664 75.5719 118.808 76.1478 116.918 76.0828ZM101.236 65.2325C102.615 67.7232 104.523 69.8816 106.825 71.5562C109.127 73.2308 111.769 74.381 114.563 74.9257C117.486 75.4535 119.851 75.0475 121.597 73.7179C123.241 72.3185 124.296 70.3501 124.551 68.2064L122.987 52.6465C122.982 52.5805 122.99 52.5141 123.011 52.4512C123.032 52.3884 123.065 52.3305 123.109 52.2811C123.154 52.2354 123.208 52.1993 123.267 52.1749C123.327 52.1505 123.39 52.1383 123.454 52.139H123.576C128.651 52.139 130.976 45.4298 131.534 41.4409C132.021 38.0406 132.772 29.606 129.433 24.5513C128.3 22.9583 126.974 21.5127 125.484 20.2477C123.34 18.0472 121.307 15.7402 119.394 13.3355C115.309 18.4859 109.371 21.8337 102.85 22.6634C103.611 30.0221 102.444 34.072 101.835 36.0411C101.702 36.4297 101.61 36.8311 101.561 37.2388C101.561 37.2388 101.601 37.2692 101.236 65.2325Z" fill="#231F20"/>
<path d="M123.982 57.7413C121.412 58.191 118.767 57.9096 116.349 56.9293C110.777 54.9703 110.452 51.1641 110.452 51.1641C110.452 51.1641 115.141 54.1076 123.444 52.5648L123.982 57.7413Z" fill="#231F20"/>
<path d="M121.719 58.4034C119.835 58.3715 117.969 58.0286 116.197 57.3884C110.422 55.3584 110.026 51.41 110.006 51.2984C109.997 51.2145 110.013 51.13 110.051 51.0547C110.089 50.9793 110.147 50.9163 110.219 50.8727C110.292 50.8292 110.375 50.807 110.459 50.8087C110.543 50.8104 110.625 50.8359 110.696 50.8822C110.696 50.8822 115.355 53.7141 123.363 52.222C123.487 52.201 123.615 52.2302 123.718 52.3033C123.769 52.3395 123.81 52.3866 123.84 52.441C123.87 52.4955 123.887 52.5559 123.891 52.6179L124.419 57.6929C124.44 57.7771 124.437 57.8658 124.41 57.9486C124.384 58.0313 124.333 58.1046 124.266 58.1598C124.223 58.1999 124.172 58.2306 124.116 58.2498C124.06 58.269 124 58.2764 123.941 58.2714C123.206 58.3866 122.462 58.4308 121.719 58.4034ZM111.132 52.0495C111.579 53.2168 112.858 55.2569 116.502 56.5358C118.728 57.3855 121.132 57.668 123.495 57.3579L123.058 53.1254C116.948 54.1505 112.858 52.8717 111.132 52.0495Z" fill="#231F20"/>
<path d="M116.603 27.2617C116.603 27.2617 122.389 34.2754 121.323 35.7065C120.257 37.1377 116.826 36.5997 116.826 36.5997" fill="white"/>
<path d="M118.258 37.1467C117.755 37.1461 117.253 37.1122 116.756 37.0452C116.65 37.0128 116.56 36.9436 116.502 36.8502C116.444 36.7568 116.422 36.6456 116.439 36.5369C116.456 36.4283 116.512 36.3295 116.596 36.2588C116.681 36.1881 116.788 36.1502 116.898 36.152C117.781 36.2941 120.227 36.426 120.958 35.4313C121.414 34.8223 119.212 31.1379 116.238 27.5448C116.201 27.4995 116.172 27.4473 116.155 27.3911C116.138 27.335 116.132 27.276 116.138 27.2175C116.143 27.1591 116.161 27.1023 116.188 27.0505C116.216 26.9987 116.253 26.9528 116.299 26.9155C116.393 26.8419 116.512 26.8072 116.631 26.8185C116.75 26.8298 116.86 26.8863 116.938 26.9764C118.745 29.1688 122.825 34.4265 121.678 35.9693C120.958 36.9437 119.425 37.1467 118.258 37.1467Z" fill="#231F20"/>
<path d="M123.846 28.8711C124.318 28.8079 124.604 28.0316 124.484 27.137C124.364 26.2425 123.885 25.5685 123.412 25.6317C122.94 25.6949 122.654 26.4713 122.774 27.3658C122.893 28.2604 123.373 28.9343 123.846 28.8711Z" fill="#231F20"/>
<path d="M109.611 28.8908C110.087 28.8852 110.465 28.1491 110.454 27.2467C110.444 26.3442 110.049 25.6172 109.573 25.6227C109.096 25.6283 108.719 26.3644 108.729 27.2669C108.74 28.1693 109.134 28.8964 109.611 28.8908Z" fill="#231F20"/>
<path d="M104.342 33.0561C103.992 31.7163 103.397 30.4532 102.586 29.3311C102.119 28.6942 101.508 28.1778 100.801 27.8248C100.095 27.4717 99.3152 27.2922 98.5258 27.3011C98.0377 27.3201 97.5603 27.4497 97.1296 27.68C96.6988 27.9103 96.3259 28.2354 96.0391 28.6307C95.6965 29.2003 95.4818 29.8376 95.4098 30.4983C94.8921 33.9798 96.0594 38.5168 99.3378 40.3134C99.8912 40.6612 100.532 40.8457 101.185 40.8457C101.839 40.8457 102.479 40.6612 103.032 40.3134" fill="white"/>
<path d="M101.409 41.2499C100.616 41.2317 99.84 41.0228 99.1454 40.6409C95.7147 38.753 94.4764 34.0738 95.0143 30.4097C95.0911 29.6902 95.3269 28.9968 95.7045 28.3797C96.0245 27.9323 96.4421 27.5636 96.9257 27.3016C97.4093 27.0395 97.9463 26.891 98.4958 26.8673C99.3539 26.8612 100.201 27.0596 100.967 27.4462C101.733 27.8327 102.396 28.3963 102.901 29.0902C103.747 30.2497 104.366 31.5582 104.728 32.9472C104.756 33.0494 104.743 33.1588 104.692 33.2517C104.641 33.3447 104.555 33.4139 104.454 33.4445C104.404 33.4616 104.351 33.4683 104.298 33.4642C104.246 33.46 104.195 33.4451 104.148 33.4204C104.101 33.3956 104.06 33.3616 104.027 33.3204C103.994 33.2791 103.97 33.2316 103.956 33.1806C103.621 31.8893 103.05 30.6711 102.272 29.5875C101.85 28.9931 101.291 28.5093 100.643 28.1771C99.9943 27.8449 99.2752 27.6741 98.5465 27.6793C98.1216 27.6952 97.7057 27.8065 97.3297 28.005C96.9536 28.2036 96.6271 28.4843 96.3744 28.8263C96.0635 29.3459 95.8728 29.9286 95.8162 30.5315C95.3087 33.9114 96.4252 38.2252 99.5311 39.9304C100.01 40.2492 100.569 40.426 101.143 40.4404C101.718 40.4547 102.285 40.3061 102.779 40.0116C102.865 39.9484 102.972 39.9205 103.077 39.9337C103.183 39.947 103.28 40.0003 103.347 40.0826C103.413 40.1675 103.443 40.275 103.429 40.3815C103.416 40.488 103.361 40.5849 103.276 40.651C102.737 41.0511 102.08 41.2617 101.409 41.2499Z" fill="#231F20"/>
<path d="M158.573 153.154C158.449 153.153 158.33 153.109 158.235 153.029C158.141 152.95 158.077 152.839 158.056 152.717C154.574 130.986 147.906 89.5639 147.601 88.3053C147.567 88.1707 147.587 88.0282 147.658 87.9085C147.728 87.7888 147.843 87.7016 147.977 87.6658C148.112 87.6348 148.255 87.6577 148.374 87.7297C148.493 87.8016 148.58 87.917 148.616 88.0515C149.012 89.6654 158.675 149.967 159.091 152.545C159.111 152.682 159.077 152.821 158.995 152.934C158.914 153.046 158.791 153.121 158.654 153.143L158.573 153.154Z" fill="#231F20"/>
<path d="M210.704 97.4375H15.2857C7.09464 97.4375 0.456543 104.482 0.456543 113.15V198.704C0.456543 207.382 7.09464 214.406 15.2857 214.406H89.2893L109.589 241.273L134.558 214.406H210.754C218.945 214.406 225.594 207.382 225.594 198.704V113.15C225.543 104.482 218.895 97.4375 210.704 97.4375Z" fill="white"/>
<path d="M109.539 241.74C109.472 241.734 109.407 241.714 109.348 241.683C109.289 241.652 109.236 241.609 109.194 241.557L89.0866 214.873H15.2859C6.85125 214.873 0 207.615 0 198.704V113.149C0 104.238 6.85125 96.9805 15.2859 96.9805H210.704C219.139 96.9805 226 104.238 226 113.149V198.704C226 207.615 219.139 214.873 210.704 214.873H134.711L109.874 241.588C109.832 241.635 109.78 241.673 109.723 241.7C109.665 241.726 109.602 241.74 109.539 241.74ZM15.2859 97.9041C7.36891 97.9041 0.923654 104.745 0.923654 113.129V198.683C0.923654 207.088 7.36891 213.908 15.2859 213.908H89.2896C89.3607 213.907 89.4313 213.923 89.4949 213.954C89.5586 213.986 89.6136 214.033 89.655 214.091L109.569 240.481L134.173 214.02C134.216 213.974 134.267 213.938 134.325 213.913C134.383 213.889 134.445 213.877 134.508 213.878H210.704C218.631 213.878 225.076 207.037 225.076 198.653V113.149C225.076 104.745 218.631 97.9244 210.704 97.9244L15.2859 97.9041Z" fill="#231F20"/>
<path d="M168.338 163.666C168.236 168.954 161.679 170.436 161.679 170.436C161.679 170.436 167.231 171.004 165.171 176.059C164.607 177.502 163.682 178.775 162.484 179.756C161.285 180.737 159.855 181.394 158.33 181.662C158.33 181.662 162.989 184.301 159.609 189.163C156.229 194.025 122.389 193.69 116.776 193.882C113.824 194.204 110.849 193.544 108.31 192.005C106.504 190.99 103.367 188.594 102.22 188.594C99.0435 188.594 86.1733 189.447 86.1733 189.447L89.2183 151.516C89.2183 151.516 106.26 151.516 109.397 148.715C117.638 141.407 122.886 128.303 122.135 120.62C121.384 112.936 119.252 107.516 124.682 106.958C130.113 106.4 135.847 117.443 136.558 124.558C137.268 131.673 133.564 140.29 135.249 143.102C136.933 145.914 141.795 146.472 149.459 145.721C157.122 144.97 164.146 144.046 167.16 147.477C170.175 150.907 170.012 155.972 163.263 158.784C163.303 158.784 168.409 160.113 168.338 163.666Z" fill="white"/>
<path d="M115.365 194.423C112.796 194.49 110.263 193.806 108.077 192.454C107.417 192.099 106.626 191.581 105.773 191.033C104.524 190.221 102.819 189.104 102.231 189.104C99.1044 189.104 86.3458 189.947 86.2139 189.957C86.141 189.96 86.0684 189.948 86.0003 189.922C85.9323 189.895 85.8702 189.856 85.818 189.805C85.7685 189.752 85.7303 189.69 85.7058 189.622C85.6814 189.554 85.6712 189.481 85.6759 189.409L88.7209 151.478C88.7312 151.351 88.7891 151.232 88.8832 151.145C88.9773 151.059 89.1006 151.011 89.2284 151.011C93.9177 151.011 106.615 150.514 109.072 148.332C115.72 142.445 122.52 129.636 121.637 120.673C121.495 119.161 121.292 117.77 121.11 116.42C120.572 112.644 120.145 109.671 121.505 107.935C121.897 107.484 122.378 107.12 122.918 106.865C123.458 106.61 124.045 106.469 124.642 106.453C130.397 105.854 136.274 116.948 137.076 124.51C137.451 128.083 136.73 131.96 136.061 135.37C135.391 138.781 134.903 141.572 135.665 142.841C137.126 145.267 141.359 145.997 149.408 145.216L150.737 145.084C158.137 144.353 164.531 143.724 167.536 147.114C168.32 147.933 168.897 148.928 169.219 150.016C169.54 151.103 169.596 152.252 169.383 153.366C169.028 154.909 167.891 157.01 164.612 158.695C166.236 159.365 168.855 160.877 168.804 163.648C168.733 167.515 165.445 169.484 163.384 170.347C163.954 170.539 164.474 170.855 164.907 171.272C165.34 171.689 165.675 172.197 165.888 172.759C166.1 173.321 166.186 173.924 166.137 174.523C166.089 175.122 165.908 175.703 165.607 176.224C165.082 177.573 164.255 178.784 163.191 179.765C162.127 180.747 160.853 181.473 159.466 181.888C160.315 182.627 160.917 183.608 161.192 184.699C161.339 185.528 161.308 186.378 161.101 187.193C160.895 188.008 160.518 188.771 159.994 189.429C157.294 193.327 138.486 194.078 120.409 194.301C118.755 194.301 117.476 194.301 116.715 194.362L115.365 194.423ZM102.231 188.089C103.053 188.089 104.332 188.881 106.291 190.19C107.113 190.718 107.894 191.205 108.503 191.561C110.963 193.06 113.852 193.699 116.715 193.378C117.476 193.378 118.745 193.378 120.43 193.317C130.265 193.195 156.391 192.87 159.152 188.881C159.602 188.395 159.934 187.813 160.125 187.179C160.315 186.545 160.358 185.876 160.25 185.223C160.143 184.57 159.887 183.95 159.503 183.41C159.119 182.871 158.617 182.427 158.035 182.111C157.942 182.057 157.868 181.975 157.824 181.877C157.78 181.778 157.769 181.668 157.792 181.563C157.811 181.458 157.864 181.363 157.943 181.292C158.022 181.22 158.122 181.176 158.228 181.167C159.667 180.914 161.015 180.293 162.143 179.365C163.271 178.437 164.139 177.232 164.663 175.869C164.936 175.378 165.087 174.829 165.104 174.267C165.122 173.706 165.006 173.148 164.765 172.641C163.892 171.18 161.639 170.926 161.608 170.926C161.489 170.914 161.378 170.859 161.295 170.771C161.213 170.683 161.166 170.569 161.161 170.449C161.155 170.33 161.19 170.212 161.26 170.116C161.331 170.02 161.432 169.951 161.547 169.921C161.618 169.921 167.729 168.459 167.82 163.638C167.881 160.532 163.212 159.274 163.171 159.253C163.065 159.231 162.969 159.176 162.898 159.094C162.826 159.013 162.783 158.911 162.775 158.803C162.767 158.695 162.795 158.588 162.853 158.497C162.912 158.406 162.999 158.336 163.1 158.299C166.094 157.051 167.932 155.254 168.419 153.143C168.596 152.187 168.542 151.203 168.261 150.272C167.981 149.342 167.481 148.492 166.805 147.794C164.146 144.749 157.995 145.368 150.869 146.079L149.54 146.251C141.054 147.073 136.517 146.19 134.822 143.379C133.868 141.785 134.406 138.882 135.096 135.208C135.715 131.858 136.426 128.103 136.061 124.632C135.34 117.811 129.737 106.971 124.743 107.488C124.283 107.492 123.829 107.591 123.41 107.78C122.99 107.968 122.615 108.242 122.307 108.584C121.211 109.975 121.607 112.766 122.114 116.298C122.297 117.598 122.5 119.069 122.652 120.592C123.393 128.194 118.389 141.46 109.752 149.113C106.768 151.763 92.4967 152.026 89.6953 152.047L86.7315 188.881C89.3198 188.739 99.419 188.089 102.231 188.089Z" fill="#231F20"/>
<path d="M152.463 160.328C152.328 160.328 152.199 160.275 152.104 160.18C152.009 160.084 151.956 159.955 151.956 159.821C151.956 159.686 152.009 159.557 152.104 159.462C152.199 159.367 152.328 159.313 152.463 159.313C160.167 159.151 163.141 158.298 163.171 158.298C163.306 158.259 163.45 158.275 163.573 158.343C163.696 158.41 163.787 158.524 163.826 158.659C163.865 158.793 163.849 158.938 163.781 159.061C163.714 159.183 163.6 159.274 163.466 159.313C163.334 159.313 160.36 160.206 152.483 160.328H152.463Z" fill="#231F20"/>
<path d="M153.752 171.847H153.174C153.039 171.847 152.91 171.794 152.815 171.699C152.719 171.604 152.666 171.475 152.666 171.34C152.666 171.205 152.719 171.076 152.815 170.981C152.91 170.886 153.039 170.832 153.174 170.832C155.976 170.973 158.784 170.678 161.497 169.96C161.623 169.917 161.761 169.927 161.881 169.986C162 170.045 162.092 170.148 162.136 170.274C162.16 170.336 162.171 170.402 162.168 170.468C162.166 170.535 162.15 170.6 162.121 170.66C162.093 170.719 162.053 170.773 162.003 170.816C161.953 170.86 161.895 170.893 161.831 170.914C161.72 170.954 159.182 171.847 153.752 171.847Z" fill="#231F20"/>
<path d="M153.174 182.843C153.039 182.843 152.91 182.789 152.815 182.694C152.719 182.599 152.666 182.47 152.666 182.335C152.669 182.201 152.723 182.074 152.818 181.979C152.912 181.885 153.04 181.83 153.174 181.828C154.855 181.879 156.533 181.663 158.147 181.188C158.274 181.141 158.414 181.146 158.536 181.202C158.659 181.259 158.755 181.361 158.802 181.488C158.849 181.614 158.844 181.754 158.788 181.877C158.731 182 158.629 182.095 158.502 182.142C156.776 182.663 154.976 182.9 153.174 182.843Z" fill="#231F20"/>
<path d="M98.7089 194.219L53.0034 196.106V145.641L98.7089 147.529V194.219Z" fill="#0157E4"/>
<path d="M84.6815 160.389C87.0359 160.389 88.9445 158.481 88.9445 156.126C88.9445 153.772 87.0359 151.863 84.6815 151.863C82.3271 151.863 80.4185 153.772 80.4185 156.126C80.4185 158.481 82.3271 160.389 84.6815 160.389Z" fill="#231F20"/>
<path d="M84.6817 160.825C83.7493 160.827 82.8374 160.553 82.0613 160.036C81.2853 159.519 80.6801 158.784 80.3224 157.923C79.9646 157.062 79.8705 156.114 80.0519 155.2C80.2333 154.285 80.6821 153.445 81.3413 152.786C82.0006 152.126 82.8407 151.678 83.7552 151.496C84.6697 151.315 85.6175 151.409 86.4785 151.767C87.3395 152.124 88.0749 152.73 88.5916 153.506C89.1084 154.282 89.3831 155.194 89.3811 156.126C89.3784 157.372 88.8824 158.565 88.0017 159.446C87.121 160.327 85.9272 160.823 84.6817 160.825ZM84.6817 152.31C83.9264 152.308 83.1875 152.53 82.5586 152.948C81.9297 153.366 81.4389 153.961 81.1485 154.658C80.8581 155.356 80.7811 156.123 80.9272 156.864C81.0733 157.605 81.436 158.286 81.9693 158.821C82.5026 159.356 83.1826 159.72 83.9232 159.868C84.6638 160.016 85.4317 159.941 86.1296 159.653C86.8276 159.364 87.4242 158.875 87.844 158.247C88.2638 157.619 88.4879 156.881 88.4879 156.126C88.4773 155.122 88.0722 154.162 87.3601 153.454C86.648 152.745 85.686 152.345 84.6817 152.34V152.31Z" fill="#231F20"/>
<path d="M183.502 41.5234C184.022 43.8927 185.211 46.0632 186.927 47.7776C188.643 49.492 190.815 50.6784 193.185 51.1964C190.817 51.7161 188.647 52.9033 186.933 54.6176C185.219 56.3318 184.031 58.5013 183.512 60.8693C182.992 58.5013 181.805 56.3318 180.091 54.6176C178.376 52.9033 176.207 51.7161 173.839 51.1964C173.839 51.1964 176.884 51.0137 180.091 47.7758C183.299 44.538 183.502 41.5234 183.502 41.5234Z" fill="#D1D3D4"/>
<path d="M15.1743 53.7656C15.5727 55.5766 16.4812 57.2357 17.7924 58.5469C19.1036 59.858 20.7626 60.7665 22.5736 61.165C20.761 61.56 19.1001 62.4673 17.7883 63.7791C16.4766 65.0908 15.5692 66.7518 15.1743 68.5643C14.7793 66.7518 13.8719 65.0908 12.5602 63.7791C11.2484 62.4673 9.58747 61.56 7.7749 61.165C9.58587 60.7665 11.245 59.858 12.5561 58.5469C13.8673 57.2357 14.7758 55.5766 15.1743 53.7656Z" fill="#D1D3D4"/>
<path d="M37.3113 22.8359C37.6241 24.2661 38.34 25.5768 39.3743 26.6129C40.4085 27.649 41.718 28.3671 43.1476 28.6823C41.7171 28.9922 40.4061 29.7073 39.3712 30.7422C38.3363 31.7771 37.6212 33.0881 37.3113 34.5186C36.9969 33.0903 36.2802 31.7818 35.2461 30.7476C34.2119 29.7134 32.9034 28.9968 31.4751 28.6823C32.9248 28.4541 34.2533 27.738 35.2407 26.6523C36.3489 25.6559 37.0801 24.3082 37.3113 22.8359Z" fill="#D1D3D4"/>
<path d="M119.029 46.2215C111.528 46.2215 109.133 36.3252 109.031 35.8989C109.007 35.7819 109.03 35.6601 109.094 35.5595C109.159 35.459 109.26 35.3877 109.377 35.361C109.434 35.3474 109.493 35.3454 109.551 35.3549C109.61 35.3644 109.665 35.3854 109.715 35.4165C109.765 35.4476 109.809 35.4884 109.843 35.5363C109.877 35.5843 109.901 35.6385 109.915 35.6959C109.915 35.7873 112.239 45.3283 119.05 45.3283C119.756 45.3555 120.459 45.2269 121.11 44.9515C121.761 44.676 122.343 44.2606 122.815 43.7347C125.16 41.0653 124.531 35.8888 124.52 35.838C124.512 35.7793 124.515 35.7195 124.53 35.662C124.545 35.6045 124.571 35.5506 124.607 35.5033C124.643 35.4561 124.688 35.4165 124.739 35.3868C124.79 35.3571 124.847 35.338 124.906 35.3305C125.024 35.3185 125.142 35.3517 125.236 35.4233C125.33 35.4949 125.394 35.5996 125.414 35.7162C125.414 35.9497 126.114 41.3495 123.495 44.3234C122.938 44.9509 122.248 45.4467 121.476 45.775C120.703 46.1032 119.868 46.2557 119.029 46.2215Z" fill="#231F20"/>
<path d="M184.344 90.9824C180.528 89.7441 176.001 88.9524 172.783 91.3681C171.279 92.6579 170.091 94.2762 169.312 96.0979C167.555 99.567 166.036 103.151 164.765 106.827C164.44 107.842 164.217 109.059 165.049 109.628C166.064 110.328 167.333 109.212 167.972 108.166C169.129 106.299 170.03 104.285 170.652 102.178C169.205 105.183 168.18 108.373 167.607 111.658C167.482 112.054 167.482 112.479 167.607 112.876C167.806 113.215 168.131 113.462 168.511 113.562C168.891 113.663 169.296 113.61 169.637 113.414C170.328 113.024 170.893 112.442 171.261 111.739C172.934 108.968 174.295 106.02 175.321 102.949C174.306 106.146 173.291 109.425 173.433 112.774C173.409 113.056 173.445 113.34 173.538 113.608C173.63 113.875 173.778 114.12 173.971 114.327C174.238 114.499 174.554 114.579 174.871 114.555C175.188 114.532 175.488 114.405 175.727 114.195C176.176 113.759 176.523 113.229 176.742 112.642L180.802 104.269C179.925 107.384 179.437 110.595 179.35 113.83C179.319 114.1 179.361 114.374 179.472 114.622C179.919 115.464 181.248 114.886 181.807 114.114C182.67 112.774 183.273 111.283 183.583 109.719C184.669 105.659 185.613 101.447 186.861 97.3972C187.897 94.068 188.282 92.2613 184.344 90.9824Z" fill="white"/>
<path d="M180.203 115.475H180.091C179.879 115.462 179.675 115.395 179.497 115.279C179.319 115.164 179.174 115.004 179.076 114.816C178.938 114.496 178.879 114.148 178.904 113.801C178.958 111.909 179.145 110.023 179.462 108.157L177.219 112.826C176.96 113.485 176.554 114.075 176.031 114.552C175.712 114.831 175.309 114.995 174.885 115.017C174.462 115.04 174.043 114.918 173.697 114.674C173.45 114.426 173.258 114.129 173.136 113.802C173.013 113.474 172.962 113.124 172.986 112.775C172.96 111.548 173.052 110.321 173.26 109.111C172.773 110.126 172.245 111.04 171.677 111.963C171.292 112.747 170.685 113.4 169.931 113.841C169.669 113.969 169.384 114.043 169.093 114.058C168.802 114.074 168.51 114.031 168.236 113.933C168.03 113.861 167.84 113.748 167.678 113.602C167.516 113.455 167.384 113.278 167.292 113.08C167.123 112.604 167.098 112.088 167.221 111.598C167.343 110.847 167.495 110.096 167.668 109.355C167.258 109.807 166.725 110.132 166.135 110.289C165.909 110.341 165.674 110.344 165.447 110.299C165.219 110.253 165.004 110.16 164.816 110.025C164.227 109.619 163.669 108.705 164.359 106.685C165.631 102.993 167.154 99.3916 168.916 95.9062C169.729 94.0169 170.965 92.3396 172.529 91.0037C175.26 88.9737 179.168 88.8215 184.507 90.5571C188.82 91.9578 188.384 94.1198 187.328 97.5302C186.496 100.21 185.796 103.001 185.115 105.65C184.76 107.031 184.415 108.411 184.1 109.781C183.773 111.399 183.146 112.941 182.253 114.328C182.02 114.662 181.714 114.938 181.359 115.137C181.004 115.335 180.609 115.451 180.203 115.475ZM180.802 103.793C180.855 103.783 180.91 103.783 180.964 103.793C181.072 103.834 181.161 103.914 181.214 104.017C181.266 104.12 181.279 104.239 181.248 104.351C180.377 107.425 179.896 110.596 179.817 113.79C179.792 113.979 179.813 114.17 179.878 114.349C179.903 114.4 179.942 114.444 179.99 114.474C180.039 114.505 180.095 114.521 180.152 114.521C180.405 114.496 180.649 114.417 180.869 114.291C181.089 114.165 181.281 113.995 181.431 113.79C182.255 112.497 182.833 111.062 183.136 109.558C183.502 108.188 183.847 106.807 184.151 105.437C184.831 102.727 185.542 99.9154 186.384 97.2155C187.399 93.9269 187.673 92.5465 184.151 91.3996C179.137 89.7654 175.493 89.8669 172.986 91.7041C171.538 92.9546 170.395 94.5206 169.647 96.2817C167.898 99.7298 166.389 103.294 165.13 106.949C164.907 107.609 164.623 108.787 165.242 109.223C165.33 109.284 165.429 109.325 165.534 109.344C165.639 109.364 165.747 109.36 165.851 109.335C166.562 109.071 167.153 108.559 167.515 107.893C167.84 107.376 168.145 106.878 168.419 106.29C168.909 104.806 169.492 103.356 170.165 101.945C170.217 101.841 170.306 101.76 170.415 101.717C170.523 101.674 170.644 101.672 170.753 101.712C170.862 101.755 170.95 101.838 171.001 101.943C171.052 102.048 171.061 102.169 171.027 102.28C170.581 103.786 169.997 105.247 169.281 106.645C168.742 108.304 168.325 110 168.033 111.72C167.946 112.032 167.946 112.362 168.033 112.674C168.12 112.842 168.269 112.97 168.449 113.029C168.61 113.097 168.782 113.132 168.957 113.132C169.131 113.132 169.304 113.097 169.464 113.029C170.051 112.659 170.522 112.132 170.824 111.507C172.474 108.762 173.819 105.845 174.834 102.808C174.881 102.704 174.965 102.621 175.07 102.574C175.175 102.528 175.293 102.522 175.402 102.557C175.511 102.592 175.603 102.666 175.661 102.765C175.719 102.863 175.739 102.98 175.717 103.092C174.752 106.229 173.758 109.467 173.859 112.765C173.836 112.981 173.856 113.199 173.919 113.406C173.982 113.614 174.086 113.807 174.225 113.973C174.409 114.075 174.62 114.117 174.829 114.093C175.038 114.07 175.235 113.982 175.392 113.841C175.8 113.451 176.119 112.976 176.326 112.451L180.386 104.087C180.417 104.001 180.473 103.927 180.548 103.875C180.622 103.822 180.711 103.793 180.802 103.793Z" fill="#231F20"/>
</svg>
