<svg width="368" height="260" viewBox="0 0 368 260" fill="none" xmlns="http://www.w3.org/2000/svg">
<path d="M308.753 65.6248C305.334 63.76 303.778 65.3102 302.536 63.76C301.294 62.2099 305.955 58.158 296.633 54.1138C296.633 54.1138 296.012 45.4038 283.27 45.0892C270.529 44.7746 273.918 53.7992 270.521 55.9786C267.125 58.158 266.175 54.7354 262.756 56.9148C259.336 59.0942 260.893 63.4454 258.094 64.067C255.296 64.6886 251.563 61.266 248.128 63.4454C244.694 65.6248 244.717 67.4896 243.161 67.4896C241.604 67.4896 238.499 66.2464 236.629 67.4896C234.758 68.7328 232.589 70.2906 232.589 70.2906H311.237C311.237 70.2906 312.172 67.4896 308.753 65.6248Z" fill="white"/>
<path d="M111.608 111.676C109.883 110.733 109.093 111.515 108.464 110.733C107.836 109.95 110.197 107.901 105.482 105.86C105.482 105.86 105.168 101.462 98.736 101.309C92.304 101.155 94.0289 105.706 92.2963 106.803C90.5637 107.901 90.1038 106.174 88.3789 107.279C86.654 108.384 87.4359 110.579 86.0177 110.894C84.5994 111.208 82.7212 109.474 80.9963 110.579C79.2713 111.684 79.2713 112.62 78.4894 112.62C77.7074 112.62 76.1282 111.991 75.1929 112.62C74.2576 113.25 73.146 114.032 73.146 114.032H112.865C112.865 114.032 113.333 112.62 111.608 111.676Z" fill="white"/>
<path d="M183.671 43.3779C181.946 42.434 181.156 43.2168 180.527 42.434C179.899 41.6513 182.26 39.6023 177.545 37.5611C177.545 37.5611 177.231 33.1639 170.799 33.0104C164.367 32.8569 166.092 37.4076 164.359 38.505C162.627 39.6023 162.167 37.8757 160.442 38.9807C158.717 40.0858 159.499 42.2806 158.081 42.5952C156.662 42.9098 154.784 41.1755 153.059 42.2806C151.334 43.3856 151.334 44.3218 150.552 44.3218C149.77 44.3218 148.191 43.6926 147.256 44.3218C146.321 44.9511 145.209 45.7339 145.209 45.7339H184.928C184.928 45.7339 185.396 44.3218 183.671 43.3779Z" fill="white"/>
<path d="M286.774 251.458H323.749C323.043 246.938 320.138 247.736 319.755 240.714C319.563 237.184 322.821 232.818 322.545 228.183C322.307 224.346 318.543 220.447 318.252 216.073C317.991 212.129 321.204 207.755 320.889 203.503C320.598 199.49 316.78 195.63 316.443 191.455C316.105 187.28 319.256 182.96 318.888 178.847C318.52 174.733 314.634 170.935 314.227 166.875C313.821 162.816 316.841 158.211 316.381 154.213C315.883 149.977 311.889 146.309 311.345 142.403C310.739 138.052 313.576 133.409 312.878 129.656C312.065 125.052 307.788 121.722 306.891 118.33C305.212 112.006 305.419 105.906 303.441 105.514C301.325 105.084 300.842 111.062 299.24 117.739C298.473 121.1 294.249 124.5 293.567 129.104C293.007 132.834 295.966 137.361 295.483 141.697C295.046 145.572 291.152 149.302 290.776 153.523C290.416 157.49 293.582 161.864 293.268 166.008C292.953 170.152 289.182 173.889 288.921 177.98C288.66 182.07 291.918 186.367 291.696 190.404C291.474 194.44 287.763 198.461 287.572 202.452C287.372 206.665 290.692 210.893 290.531 214.83C290.355 219.166 286.698 223.141 286.56 226.932C286.391 231.536 289.764 235.772 289.665 239.272C289.435 246.877 285.962 245.303 285.831 251.42L286.774 251.458Z" fill="#0045CC"/>
<path opacity="0.5" d="M286.774 251.458H323.749C323.043 246.938 320.138 247.736 319.755 240.714C319.563 237.184 322.821 232.818 322.545 228.183C322.307 224.346 318.543 220.447 318.252 216.073C317.991 212.129 321.204 207.755 320.889 203.503C320.598 199.49 316.78 195.63 316.443 191.455C316.105 187.28 319.256 182.96 318.888 178.847C318.52 174.733 314.634 170.935 314.227 166.875C313.821 162.816 316.841 158.211 316.381 154.213C315.883 149.977 311.889 146.309 311.345 142.403C310.739 138.052 313.576 133.409 312.878 129.656C312.065 125.052 307.788 121.722 306.891 118.33C305.212 112.006 305.419 105.906 303.441 105.514C301.325 105.084 300.842 111.062 299.24 117.739C298.473 121.1 294.249 124.5 293.567 129.104C293.007 132.834 295.966 137.361 295.483 141.697C295.046 145.572 291.152 149.302 290.776 153.523C290.416 157.49 293.582 161.864 293.268 166.008C292.953 170.152 289.182 173.889 288.921 177.98C288.66 182.07 291.918 186.367 291.696 190.404C291.474 194.44 287.763 198.461 287.572 202.452C287.372 206.665 290.692 210.893 290.531 214.83C290.355 219.166 286.698 223.141 286.56 226.932C286.391 231.536 289.764 235.772 289.665 239.272C289.435 246.877 285.962 245.303 285.831 251.42L286.774 251.458Z" fill="white"/>
<path d="M302.636 117.677V249.754" stroke="#263238" stroke-miterlimit="10"/>
<path d="M308.401 131.521L302.39 136.717L297.469 130.148" stroke="#263238" stroke-miterlimit="10"/>
<path d="M308.401 154.513L302.39 159.708L297.469 153.139" stroke="#263238" stroke-miterlimit="10"/>
<path d="M308.401 176.13L302.39 181.333L297.469 174.764" stroke="#263238" stroke-miterlimit="10"/>
<path d="M308.401 201.861L302.39 207.056L297.469 200.487" stroke="#263238" stroke-miterlimit="10"/>
<path d="M308.401 227.86L302.39 233.056L297.469 226.487" stroke="#263238" stroke-miterlimit="10"/>
<path d="M37.7969 251.458H74.7483C74.0353 246.938 71.1375 247.736 70.7465 240.714C70.5549 237.184 73.813 232.818 73.537 228.183C73.307 224.346 69.5429 220.447 69.2516 216.073C68.9833 212.129 72.1954 207.755 71.8888 203.503C71.5898 199.49 67.7797 195.63 67.4424 191.455C67.105 187.28 70.2559 182.96 69.8879 178.847C69.5199 174.734 65.6331 170.935 65.2191 166.875C64.8052 162.816 67.841 158.211 67.3734 154.213C66.8827 149.977 62.8809 146.309 62.3443 142.403C61.7387 138.052 64.5675 133.409 63.8775 129.657C63.0649 125.052 58.7871 121.722 57.8825 118.33C56.2649 112.045 56.4719 105.906 54.494 105.522C52.3781 105.092 51.8952 111.07 50.2929 117.746C49.5263 121.108 45.3022 124.507 44.6122 129.112C44.0602 132.841 47.0194 137.369 46.5288 141.705C46.0995 145.58 42.205 149.31 41.8217 153.53C41.469 157.498 44.6276 161.872 44.3209 166.016C44.0142 170.16 40.2348 173.897 39.9741 177.987C39.7135 182.078 42.9716 186.375 42.7493 190.411C42.527 194.448 38.8089 198.469 38.6172 202.46C38.4179 206.673 41.745 210.901 41.584 214.838C41.4001 219.174 37.7509 223.149 37.6052 226.94C37.4443 231.544 40.8174 235.78 40.6718 239.279C40.4494 246.884 36.9689 245.311 36.8386 251.427L37.7969 251.458Z" fill="#0045CC"/>
<path opacity="0.5" d="M37.7969 251.458H74.7483C74.0353 246.938 71.1375 247.736 70.7465 240.714C70.5549 237.184 73.813 232.818 73.537 228.183C73.307 224.346 69.5429 220.447 69.2516 216.073C68.9833 212.129 72.1954 207.755 71.8888 203.503C71.5898 199.49 67.7797 195.63 67.4424 191.455C67.105 187.28 70.2559 182.96 69.8879 178.847C69.5199 174.734 65.6331 170.935 65.2191 166.875C64.8052 162.816 67.841 158.211 67.3734 154.213C66.8827 149.977 62.8809 146.309 62.3443 142.403C61.7387 138.052 64.5675 133.409 63.8775 129.657C63.0649 125.052 58.7871 121.722 57.8825 118.33C56.2649 112.045 56.4719 105.906 54.494 105.522C52.3781 105.092 51.8952 111.07 50.2929 117.746C49.5263 121.108 45.3022 124.507 44.6122 129.112C44.0602 132.841 47.0194 137.369 46.5288 141.705C46.0995 145.58 42.205 149.31 41.8217 153.53C41.469 157.498 44.6276 161.872 44.3209 166.016C44.0142 170.16 40.2348 173.897 39.9741 177.987C39.7135 182.078 42.9716 186.375 42.7493 190.411C42.527 194.448 38.8089 198.469 38.6172 202.46C38.4179 206.673 41.745 210.901 41.584 214.838C41.4001 219.174 37.7509 223.149 37.6052 226.94C37.4443 231.544 40.8174 235.78 40.6718 239.279C40.4494 246.884 36.9689 245.311 36.8386 251.427L37.7969 251.458Z" fill="white"/>
<path d="M53.6813 117.677V249.754" stroke="#263238" stroke-miterlimit="10"/>
<path d="M59.4544 131.521L53.4364 136.717L48.5146 130.148" stroke="#263238" stroke-miterlimit="10"/>
<path d="M59.4544 154.513L53.4364 159.708L48.5146 153.139" stroke="#263238" stroke-miterlimit="10"/>
<path d="M59.4544 176.13L53.4364 181.333L48.5146 174.764" stroke="#263238" stroke-miterlimit="10"/>
<path d="M59.4544 201.861L53.4364 207.056L48.5146 200.487" stroke="#263238" stroke-miterlimit="10"/>
<path d="M59.4544 227.86L53.4364 233.056L48.5146 226.487" stroke="#263238" stroke-miterlimit="10"/>
<path d="M232.298 251.458H259.896C259.367 248.081 257.198 248.68 256.914 243.439C256.769 240.806 259.214 237.545 258.992 234.076C258.823 231.222 256.01 228.298 255.795 225.036C255.596 222.09 257.995 218.821 257.758 215.651C257.543 212.643 254.691 209.765 254.438 206.65C254.185 203.534 256.539 200.296 256.286 197.226C256.033 194.156 253.104 191.325 252.797 188.293C252.491 185.262 254.752 181.817 254.407 178.831C254.039 175.662 251.05 172.93 250.651 170.014C250.199 166.76 252.314 163.292 251.816 160.491C251.211 157.053 247.983 154.566 247.339 152.049C246.066 147.345 246.22 142.741 244.786 142.457C243.353 142.173 242.847 146.601 241.643 151.589C241.045 154.098 237.917 156.638 237.404 160.076C236.99 162.862 239.197 166.215 238.837 169.484C238.515 172.378 235.602 175.163 235.318 178.317C235.05 181.279 237.419 184.548 237.181 187.641C236.944 190.734 234.115 193.527 233.938 196.581C233.762 199.636 236.177 202.843 236.016 205.867C235.855 208.89 233.072 211.883 232.949 214.861C232.804 218.007 235.249 221.184 235.165 224.07C235.027 227.308 232.298 230.278 232.191 233.102C232.076 236.54 234.59 239.709 234.49 242.311C234.322 247.989 231.723 246.815 231.631 251.381L232.298 251.458Z" fill="#0045CC"/>
<path opacity="0.5" d="M232.298 251.458H259.896C259.367 248.081 257.198 248.68 256.914 243.439C256.769 240.806 259.214 237.545 258.992 234.076C258.823 231.222 256.01 228.298 255.795 225.036C255.596 222.09 257.995 218.821 257.758 215.651C257.543 212.643 254.691 209.765 254.438 206.65C254.185 203.534 256.539 200.296 256.286 197.226C256.033 194.156 253.104 191.325 252.797 188.293C252.491 185.262 254.752 181.817 254.407 178.831C254.039 175.662 251.05 172.93 250.651 170.014C250.199 166.76 252.314 163.292 251.816 160.491C251.211 157.053 247.983 154.566 247.339 152.049C246.066 147.345 246.22 142.741 244.786 142.457C243.353 142.173 242.847 146.601 241.643 151.589C241.045 154.098 237.917 156.638 237.404 160.076C236.99 162.862 239.197 166.215 238.837 169.484C238.515 172.378 235.602 175.163 235.318 178.317C235.05 181.279 237.419 184.548 237.181 187.641C236.944 190.734 234.115 193.527 233.938 196.581C233.762 199.636 236.177 202.843 236.016 205.867C235.855 208.89 233.072 211.883 232.949 214.861C232.804 218.007 235.249 221.184 235.165 224.07C235.027 227.308 232.298 230.278 232.191 233.102C232.076 236.54 234.59 239.709 234.49 242.311C234.322 247.989 231.723 246.815 231.631 251.381L232.298 251.458Z" fill="white"/>
<path d="M244.142 151.535V250.184" stroke="#263238" stroke-miterlimit="10"/>
<path d="M248.451 161.88L243.958 165.763L240.279 160.851" stroke="#263238" stroke-miterlimit="10"/>
<path d="M248.451 179.046L243.958 182.929L240.279 178.026" stroke="#263238" stroke-miterlimit="10"/>
<path d="M248.451 195.2L243.958 199.083L240.279 194.172" stroke="#263238" stroke-miterlimit="10"/>
<path d="M248.451 214.408L243.958 218.299L240.279 213.387" stroke="#263238" stroke-miterlimit="10"/>
<path d="M248.451 233.831L243.958 237.714L240.279 232.81" stroke="#263238" stroke-miterlimit="10"/>
<path d="M320.46 251.458H348.058C347.529 248.081 345.36 248.68 345.076 243.439C344.93 240.806 347.376 237.545 347.154 234.076C346.985 231.222 344.171 228.298 343.957 225.036C343.757 222.09 346.157 218.821 345.919 215.651C345.705 212.643 342.853 209.765 342.6 206.65C342.347 203.534 344.7 200.296 344.447 197.226C344.194 194.156 341.266 191.325 340.959 188.293C340.653 185.262 342.914 181.817 342.569 178.831C342.201 175.662 339.211 172.93 338.813 170.014C338.36 166.76 340.476 163.292 339.978 160.491C339.372 157.053 336.145 154.566 335.501 152.049C334.228 147.345 334.382 142.741 332.948 142.457C331.514 142.173 331.008 146.601 329.805 151.589C329.207 154.098 326.079 156.638 325.565 160.076C325.151 162.862 327.359 166.215 326.999 169.484C326.677 172.378 323.764 175.163 323.48 178.317C323.212 181.279 325.581 184.548 325.343 187.641C325.105 190.734 322.276 193.527 322.1 196.581C321.924 199.636 324.339 202.843 324.178 205.867C324.017 208.89 321.234 211.883 321.111 214.861C320.966 218.007 323.411 221.184 323.327 224.07C323.189 227.308 320.46 230.278 320.352 233.102C320.237 236.54 322.752 239.709 322.652 242.311C322.483 247.989 319.885 246.815 319.793 251.381L320.46 251.458Z" fill="#0045CC"/>
<path opacity="0.5" d="M320.46 251.458H348.058C347.529 248.081 345.36 248.68 345.076 243.439C344.93 240.806 347.376 237.545 347.154 234.076C346.985 231.222 344.171 228.298 343.957 225.036C343.757 222.09 346.157 218.821 345.919 215.651C345.705 212.643 342.853 209.765 342.6 206.65C342.347 203.534 344.7 200.296 344.447 197.226C344.194 194.156 341.266 191.325 340.959 188.293C340.653 185.262 342.914 181.817 342.569 178.831C342.201 175.662 339.211 172.93 338.813 170.014C338.36 166.76 340.476 163.292 339.978 160.491C339.372 157.053 336.145 154.566 335.501 152.049C334.228 147.345 334.382 142.741 332.948 142.457C331.514 142.173 331.008 146.601 329.805 151.589C329.207 154.098 326.079 156.638 325.565 160.076C325.151 162.862 327.359 166.215 326.999 169.484C326.677 172.378 323.764 175.163 323.48 178.317C323.212 181.279 325.581 184.548 325.343 187.641C325.105 190.734 322.276 193.527 322.1 196.581C321.924 199.636 324.339 202.843 324.178 205.867C324.017 208.89 321.234 211.883 321.111 214.861C320.966 218.007 323.411 221.184 323.327 224.07C323.189 227.308 320.46 230.278 320.352 233.102C320.237 236.54 322.752 239.709 322.652 242.311C322.483 247.989 319.885 246.815 319.793 251.381L320.46 251.458Z" fill="white"/>
<path d="M332.304 151.535V250.184" stroke="#263238" stroke-miterlimit="10"/>
<path d="M336.613 161.88L332.12 165.763L328.44 160.851" stroke="#263238" stroke-miterlimit="10"/>
<path d="M336.613 179.046L332.12 182.929L328.44 178.026" stroke="#263238" stroke-miterlimit="10"/>
<path d="M336.613 195.2L332.12 199.083L328.44 194.172" stroke="#263238" stroke-miterlimit="10"/>
<path d="M336.613 214.408L332.12 218.299L328.44 213.387" stroke="#263238" stroke-miterlimit="10"/>
<path d="M336.613 233.831L332.12 237.714L328.44 232.81" stroke="#263238" stroke-miterlimit="10"/>
<path d="M201.855 251.458H229.453C228.917 248.081 226.755 248.68 226.464 243.439C226.318 240.806 228.764 237.545 228.549 234.076C228.373 231.222 225.567 228.298 225.344 225.036C225.145 222.09 227.545 218.821 227.315 215.651C227.092 212.643 224.248 209.765 223.995 206.65C223.742 203.534 226.096 200.303 225.82 197.226C225.544 194.149 222.646 191.325 222.332 188.293C222.017 185.262 224.294 181.817 223.941 178.831C223.573 175.662 220.591 172.93 220.185 170.014C219.733 166.76 221.849 163.292 221.35 160.491C220.745 157.053 217.555 154.566 216.881 152.049C215.654 147.345 215.8 142.741 214.32 142.457C212.841 142.173 212.381 146.601 211.185 151.589C210.579 154.098 207.459 156.638 206.945 160.076C206.524 162.862 208.739 166.215 208.371 169.484C208.049 172.378 205.144 175.163 204.86 178.317C204.592 181.279 206.953 184.548 206.723 187.641C206.493 190.734 203.656 193.527 203.472 196.581C203.288 199.636 205.719 202.843 205.55 205.867C205.381 208.89 202.606 211.883 202.484 214.861C202.33 218.007 204.783 221.184 204.691 224.07C204.561 227.308 201.824 230.278 201.725 233.102C201.602 236.54 204.124 239.709 204.024 242.311C203.856 247.989 201.265 246.815 201.173 251.381L201.855 251.458Z" fill="#0045CC"/>
<path opacity="0.5" d="M201.855 251.458H229.453C228.917 248.081 226.755 248.68 226.464 243.439C226.318 240.806 228.764 237.545 228.549 234.076C228.373 231.222 225.567 228.298 225.344 225.036C225.145 222.09 227.545 218.821 227.315 215.651C227.092 212.643 224.248 209.765 223.995 206.65C223.742 203.534 226.096 200.303 225.82 197.226C225.544 194.149 222.646 191.325 222.332 188.293C222.017 185.262 224.294 181.817 223.941 178.831C223.573 175.662 220.591 172.93 220.185 170.014C219.733 166.76 221.849 163.292 221.35 160.491C220.745 157.053 217.555 154.566 216.881 152.049C215.654 147.345 215.8 142.741 214.32 142.457C212.841 142.173 212.381 146.601 211.185 151.589C210.579 154.098 207.459 156.638 206.945 160.076C206.524 162.862 208.739 166.215 208.371 169.484C208.049 172.378 205.144 175.163 204.86 178.317C204.592 181.279 206.953 184.548 206.723 187.641C206.493 190.734 203.656 193.527 203.472 196.581C203.288 199.636 205.719 202.843 205.55 205.867C205.381 208.89 202.606 211.883 202.484 214.861C202.33 218.007 204.783 221.184 204.691 224.07C204.561 227.308 201.824 230.278 201.725 233.102C201.602 236.54 204.124 239.709 204.024 242.311C203.856 247.989 201.265 246.815 201.173 251.381L201.855 251.458Z" fill="white"/>
<path d="M213.715 151.535V250.184" stroke="#263238" stroke-miterlimit="10"/>
<path d="M218.023 161.88L213.531 165.763L209.859 160.851" stroke="#263238" stroke-miterlimit="10"/>
<path d="M218.023 179.046L213.531 182.929L209.859 178.026" stroke="#263238" stroke-miterlimit="10"/>
<path d="M218.023 195.2L213.531 199.083L209.859 194.172" stroke="#263238" stroke-miterlimit="10"/>
<path d="M218.023 214.408L213.531 218.299L209.859 213.387" stroke="#263238" stroke-miterlimit="10"/>
<path d="M218.023 233.831L213.531 237.714L209.859 232.81" stroke="#263238" stroke-miterlimit="10"/>
<path d="M148.267 251.458H175.866C175.337 248.081 173.167 248.68 172.884 243.439C172.738 240.806 175.184 237.545 174.961 234.076C174.793 231.222 171.979 228.298 171.765 225.036C171.565 222.09 173.965 218.821 173.735 215.651C173.512 212.643 170.668 209.765 170.408 206.65C170.147 203.534 172.516 200.303 172.24 197.226C171.964 194.149 169.058 191.325 168.752 188.293C168.445 185.262 170.707 181.817 170.362 178.831C169.994 175.662 167.004 172.93 166.605 170.014C166.153 166.76 168.269 163.292 167.77 160.491C167.165 157.053 163.937 154.566 163.293 152.049C162.044 147.33 162.197 142.771 160.725 142.48C159.138 142.165 158.786 146.624 157.582 151.612C156.984 154.121 153.856 156.661 153.343 160.099C152.929 162.885 155.136 166.238 154.776 169.507C154.454 172.401 151.541 175.186 151.257 178.34C150.989 181.302 153.358 184.572 153.12 187.664C152.883 190.757 150.054 193.55 149.877 196.604C149.701 199.659 152.116 202.866 151.955 205.89C151.794 208.913 149.011 211.906 148.888 214.884C148.743 218.03 151.188 221.207 151.104 224.093C150.966 227.331 148.237 230.301 148.129 233.125C148.014 236.563 150.529 239.732 150.429 242.334C150.261 248.012 147.662 246.838 147.57 251.404L148.267 251.458Z" fill="#0045CC"/>
<path opacity="0.5" d="M148.267 251.458H175.866C175.337 248.081 173.167 248.68 172.884 243.439C172.738 240.806 175.184 237.545 174.961 234.076C174.793 231.222 171.979 228.298 171.765 225.036C171.565 222.09 173.965 218.821 173.735 215.651C173.512 212.643 170.668 209.765 170.408 206.65C170.147 203.534 172.516 200.303 172.24 197.226C171.964 194.149 169.058 191.325 168.752 188.293C168.445 185.262 170.707 181.817 170.362 178.831C169.994 175.662 167.004 172.93 166.605 170.014C166.153 166.76 168.269 163.292 167.77 160.491C167.165 157.053 163.937 154.566 163.293 152.049C162.044 147.33 162.197 142.771 160.725 142.48C159.138 142.165 158.786 146.624 157.582 151.612C156.984 154.121 153.856 156.661 153.343 160.099C152.929 162.885 155.136 166.238 154.776 169.507C154.454 172.401 151.541 175.186 151.257 178.34C150.989 181.302 153.358 184.572 153.12 187.664C152.883 190.757 150.054 193.55 149.877 196.604C149.701 199.659 152.116 202.866 151.955 205.89C151.794 208.913 149.011 211.906 148.888 214.884C148.743 218.03 151.188 221.207 151.104 224.093C150.966 227.331 148.237 230.301 148.129 233.125C148.014 236.563 150.529 239.732 150.429 242.334C150.261 248.012 147.662 246.838 147.57 251.404L148.267 251.458Z" fill="white"/>
<path d="M160.112 151.535V250.184" stroke="#263238" stroke-miterlimit="10"/>
<path d="M164.421 161.88L159.928 165.763L156.248 160.851" stroke="#263238" stroke-miterlimit="10"/>
<path d="M164.421 179.046L159.928 182.929L156.248 178.026" stroke="#263238" stroke-miterlimit="10"/>
<path d="M164.421 195.2L159.928 199.083L156.248 194.172" stroke="#263238" stroke-miterlimit="10"/>
<path d="M164.421 214.408L159.928 218.299L156.248 213.387" stroke="#263238" stroke-miterlimit="10"/>
<path d="M164.421 233.831L159.928 237.714L156.248 232.81" stroke="#263238" stroke-miterlimit="10"/>
<path d="M80.8275 242.763H103.995C103.55 239.924 101.733 240.461 101.488 236.026C101.365 233.816 103.412 231.076 103.236 228.167C103.09 225.773 100.729 223.318 100.545 220.578C100.384 218.099 102.4 215.36 102.201 212.697C102.017 210.172 99.6252 207.755 99.4105 205.138C99.1959 202.521 101.181 199.812 100.944 197.234C100.706 194.655 98.2836 192.276 98.0229 189.729C97.7623 187.181 99.6635 184.295 99.3722 181.786C99.0656 179.131 96.5587 176.829 96.2137 174.381C95.8381 171.656 97.6166 168.74 97.195 166.384C96.689 163.499 94.0058 161.411 93.4385 159.286C92.3882 155.318 92.5186 151.497 91.2766 151.251C90.0347 151.006 89.6514 154.727 88.6471 158.925C88.1411 161.028 85.5193 163.161 85.09 166.047C84.7373 168.387 86.6232 171.227 86.2859 173.943C86.0176 176.376 83.572 178.716 83.3344 181.364C83.1121 183.85 85.0976 186.59 84.8676 189.191C84.6376 191.793 82.3071 194.126 82.1461 196.696C81.9851 199.267 84.0243 201.953 83.8864 204.486C83.7484 207.018 81.4178 209.543 81.2952 212.044C81.1725 214.684 83.2577 217.355 83.1504 219.803C83.0431 222.519 80.7432 225.013 80.6589 227.392C80.5592 230.27 82.6751 232.933 82.6061 235.128C82.4681 239.901 80.3062 238.911 80.2065 242.748L80.8275 242.763Z" fill="#0045CC"/>
<path opacity="0.5" d="M80.8275 242.763H103.995C103.55 239.924 101.733 240.461 101.488 236.026C101.365 233.816 103.412 231.076 103.236 228.167C103.09 225.773 100.729 223.318 100.545 220.578C100.384 218.099 102.4 215.36 102.201 212.697C102.017 210.172 99.6252 207.755 99.4105 205.138C99.1959 202.521 101.181 199.812 100.944 197.234C100.706 194.655 98.2836 192.276 98.0229 189.729C97.7623 187.181 99.6635 184.295 99.3722 181.786C99.0656 179.131 96.5587 176.829 96.2137 174.381C95.8381 171.656 97.6166 168.74 97.195 166.384C96.689 163.499 94.0058 161.411 93.4385 159.286C92.3882 155.318 92.5186 151.497 91.2766 151.251C90.0347 151.006 89.6514 154.727 88.6471 158.925C88.1411 161.028 85.5193 163.161 85.09 166.047C84.7373 168.387 86.6232 171.227 86.2859 173.943C86.0176 176.376 83.572 178.716 83.3344 181.364C83.1121 183.85 85.0976 186.59 84.8676 189.191C84.6376 191.793 82.3071 194.126 82.1461 196.696C81.9851 199.267 84.0243 201.953 83.8864 204.486C83.7484 207.018 81.4178 209.543 81.2952 212.044C81.1725 214.684 83.2577 217.355 83.1504 219.803C83.0431 222.519 80.7432 225.013 80.6589 227.392C80.5592 230.27 82.6751 232.933 82.6061 235.128C82.4681 239.901 80.3062 238.911 80.2065 242.748L80.8275 242.763Z" fill="white"/>
<path d="M90.7708 158.871V241.689" stroke="#263238" stroke-miterlimit="10"/>
<path d="M94.389 167.551L90.6172 170.812L87.5354 166.691" stroke="#263238" stroke-miterlimit="10"/>
<path d="M94.389 181.97L90.6172 185.232L87.5354 181.111" stroke="#263238" stroke-miterlimit="10"/>
<path d="M94.389 195.522L90.6172 198.784L87.5354 194.671" stroke="#263238" stroke-miterlimit="10"/>
<path d="M94.389 211.661L90.6172 214.915L87.5354 210.801" stroke="#263238" stroke-miterlimit="10"/>
<path d="M94.389 227.96L90.6172 231.222L87.5354 227.101" stroke="#263238" stroke-miterlimit="10"/>
<path d="M115.924 251.458H149.778C149.126 247.314 146.466 248.043 146.114 241.62C145.937 238.389 148.927 234.383 148.674 230.109C148.459 226.602 145.01 223.018 144.741 219.012C144.504 215.398 147.44 211.392 147.156 207.501C146.888 203.818 143.392 200.288 143.085 196.459C142.779 192.629 145.661 188.677 145.324 184.902C144.987 181.126 141.429 177.665 141.046 173.943C140.663 170.221 143.453 166.001 143.024 162.34C142.572 158.449 138.907 155.096 138.424 151.52C137.872 147.529 140.471 143.27 139.858 139.832C139.091 135.619 135.197 132.565 134.369 129.457C132.836 123.663 133.027 118.076 131.21 117.708C129.278 117.324 128.834 122.796 127.377 128.92C126.611 131.989 122.777 135.105 122.18 139.326C121.666 142.741 124.38 146.9 123.935 150.837C123.536 154.39 119.964 157.805 119.619 161.672C119.289 165.31 122.187 169.346 121.919 173.114C121.651 176.882 118.178 180.336 117.94 184.08C117.702 187.825 120.692 191.754 120.485 195.469C120.278 199.183 116.874 202.851 116.698 206.504C116.514 210.341 119.565 214.27 119.412 217.854C119.251 221.821 115.893 225.466 115.771 228.935C115.625 233.148 118.714 237.039 118.615 240.246C118.408 247.214 115.226 245.772 115.111 251.374L115.924 251.458Z" fill="#0045CC"/>
<path opacity="0.5" d="M115.924 251.458H149.778C149.126 247.314 146.466 248.043 146.114 241.62C145.937 238.389 148.927 234.383 148.674 230.109C148.459 226.602 145.01 223.018 144.741 219.012C144.504 215.398 147.44 211.392 147.156 207.501C146.888 203.818 143.392 200.288 143.085 196.459C142.779 192.629 145.661 188.677 145.324 184.902C144.987 181.126 141.429 177.665 141.046 173.943C140.663 170.221 143.453 166.001 143.024 162.34C142.572 158.449 138.907 155.096 138.424 151.52C137.872 147.529 140.471 143.27 139.858 139.832C139.091 135.619 135.197 132.565 134.369 129.457C132.836 123.663 133.027 118.076 131.21 117.708C129.278 117.324 128.834 122.796 127.377 128.92C126.611 131.989 122.777 135.105 122.18 139.326C121.666 142.741 124.38 146.9 123.935 150.837C123.536 154.39 119.964 157.805 119.619 161.672C119.289 165.31 122.187 169.346 121.919 173.114C121.651 176.882 118.178 180.336 117.94 184.08C117.702 187.825 120.692 191.754 120.485 195.469C120.278 199.183 116.874 202.851 116.698 206.504C116.514 210.341 119.565 214.27 119.412 217.854C119.251 221.821 115.893 225.466 115.771 228.935C115.625 233.148 118.714 237.039 118.615 240.246C118.408 247.214 115.226 245.772 115.111 251.374L115.924 251.458Z" fill="white"/>
<path d="M130.459 128.874V249.9" stroke="#263238" stroke-miterlimit="10"/>
<path d="M135.741 141.559L130.229 146.324L125.721 140.308" stroke="#263238" stroke-miterlimit="10"/>
<path d="M135.741 162.624L130.229 167.389L125.721 161.373" stroke="#263238" stroke-miterlimit="10"/>
<path d="M135.741 182.438L130.229 187.204L125.721 181.18" stroke="#263238" stroke-miterlimit="10"/>
<path d="M135.741 206.013L130.229 210.771L125.721 204.754" stroke="#263238" stroke-miterlimit="10"/>
<path d="M135.741 229.833L130.229 234.598L125.721 228.582" stroke="#263238" stroke-miterlimit="10"/>
<path d="M351.301 241.773L345.551 239.433L339.794 241.773L334.044 239.433L328.287 241.773L322.537 239.433L316.788 241.773L311.03 239.433L305.28 241.773L299.523 239.433L293.773 241.773L288.024 239.433L282.266 241.773L276.517 239.433L270.767 241.773L265.01 239.433L259.26 241.773L253.503 239.433L247.753 241.773L242.003 239.433L236.246 241.773L230.496 239.433L224.739 241.773L218.989 239.433L213.239 241.773L207.482 239.433L201.732 241.773L195.983 239.433L190.225 241.773L184.475 239.433L178.726 241.773L172.968 239.433L167.219 241.773L161.469 239.433L155.719 241.773L149.962 239.433L144.212 241.773L138.463 239.433L132.713 241.773L126.963 239.433L121.206 241.773L115.456 239.433L109.706 241.773L103.957 239.433L98.207 241.773L92.4573 239.433L86.7076 241.773L80.9502 239.433L75.2005 241.773L69.4508 239.433L63.7011 241.773L57.9514 239.433L52.2017 241.773L46.452 239.433L40.7023 241.773L34.9526 239.433L29.2029 241.773L23.4532 239.433L18.6312 241.397V251.466H352.114V241.443L351.301 241.773Z" fill="#0045CC"/>
<path d="M241.719 88.3014C238.193 88.3017 234.771 89.5003 232.014 91.701C231.329 87.4737 229.427 83.5385 226.539 80.3782C223.652 77.218 219.906 74.9703 215.761 73.911C211.616 72.8516 207.252 73.0267 203.204 74.4147C199.157 75.8028 195.603 78.3434 192.977 81.7248C190.317 78.1935 186.681 75.5197 182.519 74.0339C178.357 72.5481 173.851 72.3152 169.559 73.3642C165.266 74.4131 161.374 76.6979 158.364 79.9362C155.354 83.1745 153.358 87.2245 152.622 91.5859C149.854 90.9053 146.952 91.0105 144.24 91.8896C141.529 92.7687 139.116 94.3869 137.272 96.5625C135.429 98.7382 134.227 101.385 133.803 104.206C133.379 107.028 133.749 109.911 134.871 112.534C135.993 115.156 137.823 117.414 140.156 119.053C142.489 120.692 145.232 121.648 148.077 121.813C150.922 121.978 153.757 121.346 156.264 119.988C158.77 118.63 160.849 116.599 162.266 114.124C167.092 117.379 172.985 118.649 178.721 117.668C184.457 116.688 189.596 113.533 193.069 108.86C195.034 111.351 197.514 113.387 200.34 114.829C203.165 116.27 206.268 117.081 209.437 117.208C212.605 117.335 215.763 116.774 218.694 115.563C221.626 114.353 224.26 112.522 226.418 110.195C227.388 113.525 229.403 116.453 232.164 118.548C234.925 120.643 238.286 121.793 241.75 121.829C250.628 121.829 257.849 114.332 257.849 105.077C257.849 95.8219 250.597 88.3014 241.719 88.3014Z" fill="#263238" stroke="#263238" stroke-linecap="round" stroke-linejoin="round"/>
<path d="M162.266 115.252C162.042 115.253 161.822 115.187 161.635 115.063C161.448 114.938 161.302 114.761 161.216 114.554L151.564 92.0233C151.443 91.7424 151.439 91.425 151.551 91.1407C151.664 90.8565 151.885 90.6288 152.166 90.5077C152.447 90.3866 152.764 90.382 153.048 90.495C153.332 90.608 153.559 90.8292 153.68 91.1101L163.324 113.649C163.387 113.788 163.422 113.939 163.426 114.093C163.43 114.246 163.404 114.399 163.348 114.542C163.292 114.685 163.209 114.815 163.102 114.926C162.995 115.036 162.867 115.123 162.726 115.183C162.579 115.235 162.423 115.259 162.266 115.252Z" fill="white" stroke="#263238" stroke-miterlimit="10"/>
<path d="M193.069 110.372C192.663 110.372 192.273 110.21 191.985 109.922C191.698 109.634 191.536 109.244 191.536 108.837L191.444 81.6941C191.444 81.287 191.606 80.8967 191.893 80.6088C192.181 80.321 192.571 80.1593 192.977 80.1593C193.384 80.1593 193.774 80.321 194.062 80.6088C194.349 80.8967 194.511 81.287 194.511 81.6941L194.603 108.829C194.603 109.236 194.441 109.627 194.154 109.915C193.866 110.202 193.476 110.364 193.069 110.364V110.372Z" fill="white" stroke="#263238" stroke-miterlimit="10"/>
<path d="M226.387 111.707C226.234 111.706 226.082 111.685 225.934 111.646C225.741 111.587 225.562 111.491 225.406 111.362C225.251 111.234 225.122 111.076 225.027 110.898C224.932 110.72 224.874 110.525 224.854 110.324C224.835 110.123 224.856 109.92 224.915 109.727L230.511 91.2559C230.629 90.8662 230.897 90.5393 231.255 90.3472C231.614 90.155 232.034 90.1134 232.424 90.2315C232.813 90.3495 233.14 90.6175 233.332 90.9766C233.524 91.3357 233.565 91.7564 233.447 92.1461L227.92 110.617C227.821 110.944 227.617 111.228 227.34 111.425C227.062 111.622 226.727 111.722 226.387 111.707Z" fill="white" stroke="#263238" stroke-miterlimit="10"/>
<path d="M233.47 97.6637C233.47 97.6637 251.54 90.1969 256.255 90.1969C260.969 90.1969 258.225 91.7701 256.255 93.7346C254.284 95.6991 253.311 97.8632 254.292 100.027L233.47 97.6637Z" fill="#0045CC" stroke="#263238" stroke-linecap="round" stroke-linejoin="round"/>
<path d="M126.02 103.373C126.02 103.373 172.179 93.1437 263.131 103.373C263.131 103.373 264.703 102.782 263.721 101.992C262.74 101.201 224.041 94.3178 187.703 94.7169C151.365 95.1159 127.001 98.2316 126.02 103.373Z" fill="#0045CC" stroke="#263238" stroke-linecap="round" stroke-linejoin="round"/>
<path d="M222.27 80.5583H171.205C169.359 80.5583 167.863 82.0563 167.863 83.9042V96.8732C167.863 98.7211 169.359 100.219 171.205 100.219H222.27C224.116 100.219 225.613 98.7211 225.613 96.8732V83.9042C225.613 82.0563 224.116 80.5583 222.27 80.5583Z" fill="#0045CC" stroke="#263238" stroke-linecap="round" stroke-linejoin="round"/>
<path d="M222.914 80.5814H170.561C169.808 80.6192 169.1 80.9548 168.594 81.5147C168.088 82.0745 167.825 82.8126 167.863 83.5666V86.3753H225.62V83.5666C225.639 83.1926 225.583 82.8186 225.457 82.4661C225.331 82.1135 225.137 81.7893 224.886 81.512C224.634 81.2347 224.331 81.0098 223.992 80.8501C223.654 80.6904 223.288 80.5991 222.914 80.5814Z" fill="white" stroke="#263238" stroke-linecap="round" stroke-linejoin="round"/>
<path d="M229.147 99.4364H164.329C162.483 99.4364 160.986 100.934 160.986 102.782V118.115C160.986 119.963 162.483 121.461 164.329 121.461H229.147C230.993 121.461 232.489 119.963 232.489 118.115V102.782C232.489 100.934 230.993 99.4364 229.147 99.4364Z" fill="#B2B2B2" stroke="#263238" stroke-linecap="round" stroke-linejoin="round"/>
<path d="M229.147 99.4364H164.29C163.405 99.4385 162.557 99.7918 161.932 100.419C161.307 101.046 160.955 101.896 160.955 102.782V105.906H232.52V102.759C232.517 102.319 232.427 101.884 232.256 101.479C232.085 101.074 231.835 100.706 231.522 100.397C231.209 100.089 230.838 99.8449 230.43 99.6801C230.023 99.5152 229.586 99.4324 229.147 99.4364Z" fill="white" stroke="#263238" stroke-linecap="round" stroke-linejoin="round"/>
<path d="M186.722 108.085H189.666V109.267C189.666 110.622 190.204 111.922 191.161 112.881C192.119 113.839 193.417 114.378 194.772 114.378H199.295C200.649 114.378 201.947 113.839 202.905 112.881C203.862 111.922 204.4 110.622 204.4 109.267V107.893H207.145" stroke="#263238" stroke-width="3" stroke-linecap="round" stroke-linejoin="round"/>
<path d="M233.286 120.486H159.315C156.096 120.484 152.987 121.654 150.567 123.778C149.004 125.146 147.783 126.863 147.003 128.789L130.321 169.991C129.765 171.366 128.879 172.582 127.741 173.531C126.603 174.48 125.248 175.133 123.797 175.432L104.263 179.438C100.554 180.195 97.0755 181.82 94.113 184.18C89.6014 187.795 86.5445 192.917 85.5038 198.607L83.1196 211.653C82.8523 213.128 82.9165 214.644 83.3077 216.091C83.6989 217.538 84.4072 218.879 85.3811 220.018C86.3291 221.124 87.5053 222.011 88.8289 222.617C90.1524 223.224 91.5917 223.536 93.0474 223.532H115.502L133.134 234.276H219.763L267.555 227.369L278.011 226.602C279.236 226.52 280.421 226.132 281.456 225.472C282.492 224.812 283.345 223.902 283.937 222.826C285.414 220.219 286.277 217.308 286.46 214.316C286.72 207.67 284.926 201.017 281.607 194.624C278.287 188.232 273.427 187.457 267.041 166.231C260.655 145.004 257.818 135.32 251.432 128.16C245.046 121 233.286 120.486 233.286 120.486Z" fill="#0045CC" stroke="#263238" stroke-linecap="round" stroke-linejoin="round"/>
<path d="M134.139 182.392V225.367C134.139 226.858 134.731 228.289 135.785 229.344C136.839 230.399 138.268 230.992 139.758 230.992H207.221C208.269 230.991 209.304 230.769 210.26 230.339C211.215 229.909 212.069 229.282 212.764 228.498C213.974 227.139 214.642 225.383 214.642 223.563V184.426" stroke="#263238" stroke-linecap="round" stroke-linejoin="round"/>
<path d="M105.643 188.401H267.402" stroke="#263238" stroke-linecap="round" stroke-linejoin="round"/>
<path d="M211.308 191.601H203.135C202.729 191.601 202.339 191.439 202.051 191.151C201.764 190.864 201.602 190.473 201.602 190.066C201.602 189.659 201.764 189.269 202.051 188.981C202.339 188.693 202.729 188.531 203.135 188.531H211.308C211.714 188.531 212.104 188.693 212.392 188.981C212.679 189.269 212.841 189.659 212.841 190.066C212.841 190.268 212.801 190.467 212.724 190.653C212.647 190.84 212.534 191.009 212.392 191.151C212.249 191.294 212.08 191.407 211.894 191.484C211.708 191.561 211.509 191.601 211.308 191.601Z" fill="#263238" stroke="#263238" stroke-linecap="round" stroke-linejoin="round"/>
<path d="M168.89 124.323H166.437C162.364 124.325 158.391 125.581 155.056 127.922C151.722 130.263 149.189 133.575 147.8 137.407L133.449 177.097C133.296 177.521 133.248 177.975 133.308 178.422C133.367 178.868 133.534 179.294 133.792 179.663C134.051 180.031 134.394 180.332 134.793 180.54C135.193 180.748 135.636 180.857 136.086 180.857H208.754C209.392 180.857 210.024 180.731 210.613 180.487C211.203 180.242 211.738 179.884 212.189 179.432C212.639 178.98 212.997 178.444 213.24 177.853C213.483 177.263 213.608 176.631 213.607 175.992V130.593C213.608 129.77 213.447 128.955 213.133 128.194C212.819 127.433 212.359 126.742 211.778 126.16C211.197 125.578 210.507 125.116 209.747 124.801C208.988 124.485 208.174 124.323 207.352 124.323H168.89Z" fill="#757575"/>
<path d="M206.455 154.098C206.455 154.098 213.876 160.107 215.815 164.527C217.755 168.947 220.415 181.494 220.415 181.494H175.399C175.399 181.494 187.404 167.681 192.349 163.292C197.294 158.902 206.455 154.098 206.455 154.098Z" fill="white"/>
<path d="M203.219 166.162C204.178 165.202 206.087 165.586 206.087 168.648C206.143 169.452 205.901 170.249 205.408 170.886C204.914 171.524 204.203 171.956 203.411 172.101C204.518 172.121 205.615 172.316 206.661 172.677C208.195 173.252 207.62 176.514 204.362 177.281C201.103 178.049 200.72 173.252 200.72 173.252C200.262 173.912 199.876 174.62 199.57 175.363C198.995 176.706 193.629 177.665 194.012 174.404C194.395 171.142 198.995 171.526 198.229 171.142C197.462 170.758 192.671 166.354 196.695 165.003C200.72 163.652 200.912 170.375 200.912 170.375C200.912 170.375 202.261 167.121 203.219 166.162ZM214.519 162.325C214.519 162.325 214.328 155.61 210.303 156.953C206.278 158.296 211.07 162.708 211.836 163.092C212.603 163.476 208.003 163.092 207.62 166.354C207.236 169.615 212.603 168.656 213.178 167.313C213.484 166.57 213.869 165.862 214.328 165.202C214.328 165.202 214.711 169.991 217.969 169.224C221.227 168.456 221.802 165.202 220.269 164.619C219.222 164.259 218.125 164.064 217.019 164.044C217.811 163.898 218.522 163.466 219.015 162.829C219.509 162.192 219.751 161.395 219.694 160.59C219.694 157.521 217.785 157.137 216.827 158.096C215.869 159.056 214.519 162.325 214.519 162.325ZM214.903 178.44C214.903 178.44 214.711 171.725 210.686 173.068C206.661 174.411 211.453 178.824 212.22 179.207C212.986 179.591 208.386 179.207 208.003 182.461C207.62 185.715 212.986 184.763 213.561 183.421C213.866 182.679 214.252 181.974 214.711 181.318C214.711 181.318 215.094 186.106 218.353 185.339C221.611 184.572 222.186 181.318 220.652 180.735C219.606 180.374 218.509 180.18 217.402 180.159C218.194 180.014 218.905 179.581 219.399 178.944C219.892 178.307 220.134 177.51 220.077 176.706C220.077 173.636 218.169 173.252 217.21 174.212C216.252 175.171 214.887 178.432 214.887 178.432L214.903 178.44ZM187.128 178.824C187.128 178.824 186.936 172.109 182.911 173.452C178.887 174.795 183.678 179.207 184.445 179.591C185.211 179.975 180.612 179.591 180.228 182.845C179.845 186.099 185.211 185.147 185.786 183.804C186.091 183.063 186.477 182.358 186.936 181.702C186.936 181.702 187.319 186.49 190.578 185.723C193.836 184.955 194.411 181.702 192.878 181.118C191.831 180.757 190.734 180.563 189.627 180.543C190.419 180.397 191.13 179.965 191.624 179.328C192.118 178.691 192.359 177.894 192.303 177.089C192.303 174.02 190.394 173.636 189.435 174.595C188.477 175.555 187.128 178.808 187.128 178.808V178.824ZM200.927 156.385C200.927 156.385 200.735 149.678 196.711 151.013C192.686 152.349 197.477 156.761 198.244 157.152C199.011 157.544 194.411 157.152 194.027 160.414C193.644 163.675 199.011 162.716 199.586 161.373C199.892 160.63 200.277 159.923 200.735 159.263C200.735 159.263 201.119 164.059 204.377 163.292C207.635 162.524 208.21 159.263 206.677 158.687C205.619 158.314 204.509 158.112 203.388 158.089C204.179 157.944 204.889 157.512 205.382 156.877C205.876 156.241 206.118 155.446 206.064 154.643C206.064 151.573 204.155 151.19 203.196 152.149C202.238 153.108 200.919 156.377 200.919 156.377L200.927 156.385Z" fill="#0045CC"/>
<path d="M206.455 154.098C206.455 154.098 213.876 160.107 215.815 164.527C217.755 168.947 220.415 181.494 220.415 181.494H175.399C175.399 181.494 187.404 167.681 192.349 163.292C197.294 158.902 206.455 154.098 206.455 154.098Z" stroke="#263238" stroke-linecap="round" stroke-linejoin="round"/>
<path d="M175.399 181.494H197.393C197.209 177.059 196.581 168.004 194.465 165.763C193.254 164.466 191.184 165.141 189.221 166.331C183.586 172.094 175.399 181.494 175.399 181.494Z" stroke="#263238" stroke-linecap="round" stroke-linejoin="round"/>
<path d="M183.694 131.299C183.694 131.299 180.167 135.543 180.167 136.425C180.222 137.526 179.842 138.604 179.109 139.426C178.22 140.316 175.575 142.963 175.575 144.375C175.575 145.787 178.396 145.434 178.396 145.434C178.396 145.434 174.87 150.039 175.928 151.62C176.986 153.2 190.233 164.704 190.233 164.704L205.566 152.51L204.508 150.208C205.288 149.031 205.828 147.711 206.094 146.324C206.271 144.552 207.513 138.014 201.495 133.77C195.477 129.526 186.346 129.004 183.694 131.299Z" fill="white" stroke="#263238" stroke-linecap="round" stroke-linejoin="round"/>
<path d="M204.53 150.207C205.311 149.031 205.85 147.711 206.117 146.324C206.293 144.552 207.535 138.014 201.517 133.77C198.58 131.797 195.217 130.551 191.705 130.132C193.023 130.9 195.538 132.557 195.691 134.123C195.867 136.248 193.575 136.425 193.575 136.425C193.575 136.425 189.336 138.19 189.865 139.073C190.394 139.955 192.694 141.551 192.694 142.081C192.694 142.61 191.283 144.728 192.517 145.081C193.751 145.434 194.457 142.434 196.228 142.779C197.999 143.124 198.696 142.956 198.167 145.78C197.638 148.604 196.051 149.317 196.051 149.847C196.051 150.376 201.418 151.336 204.76 150.706L204.53 150.207Z" fill="#263238" stroke="#263238" stroke-linecap="round" stroke-linejoin="round"/>
<path d="M184.759 130.416C184.759 130.416 197.117 119.105 198.704 119.105C200.291 119.105 210.357 124.937 210.709 127.232C211.062 129.526 208.241 145.081 208.241 145.081L184.759 130.416Z" fill="white" stroke="#263238" stroke-linecap="round" stroke-linejoin="round"/>
<path d="M184.759 130.416L208.241 145.081C208.241 145.081 208.785 142.088 209.36 138.535L188.707 126.871C186.476 128.843 184.759 130.416 184.759 130.416Z" fill="#263238" stroke="#263238" stroke-linecap="round" stroke-linejoin="round"/>
<path d="M176.281 127.761C176.281 127.761 211.944 154.62 212.473 152.51C213.002 150.399 212.12 147.207 209.652 144.199C207.183 141.191 193.553 132.534 187.228 129.71C180.903 126.886 176.633 125.643 176.281 127.761Z" fill="white" stroke="#263238" stroke-linecap="round" stroke-linejoin="round"/>
<path d="M183.456 138.973C183.019 140.623 182.084 141.812 181.378 141.62C180.673 141.429 180.458 139.94 180.903 138.29C181.348 136.64 182.275 135.458 182.981 135.642C183.686 135.826 183.916 137.369 183.456 138.973Z" stroke="#263238" stroke-linecap="round" stroke-linejoin="round"/>
<path d="M183.471 138.973L194.465 143.316" stroke="#263238" stroke-linecap="round" stroke-linejoin="round"/>
<path d="M178.043 146.501C179.041 146.782 180.096 146.782 181.093 146.5C182.09 146.218 182.99 145.666 183.693 144.905" stroke="#263238" stroke-linecap="round" stroke-linejoin="round"/>
<path d="M183.165 143.846L184.759 145.964" stroke="#263238" stroke-linecap="round" stroke-linejoin="round"/>
<path d="M186.139 161.926L186.63 169.346L207.114 154.152L205.412 150.737L186.139 161.926Z" fill="white" stroke="#263238" stroke-linecap="round" stroke-linejoin="round"/>
<path d="M158.418 182.009L154.853 183.014L149.617 164.381C149.549 164.146 149.529 163.899 149.557 163.655C149.586 163.411 149.662 163.176 149.782 162.961C149.901 162.747 150.062 162.559 150.255 162.408C150.448 162.256 150.669 162.145 150.905 162.079C151.14 162.011 151.386 161.991 151.629 162.018C151.872 162.046 152.108 162.122 152.321 162.241C152.535 162.36 152.723 162.52 152.875 162.712C153.026 162.905 153.139 163.125 153.205 163.361L158.418 182.009Z" fill="#263238" stroke="#263238" stroke-linecap="round" stroke-linejoin="round"/>
<path d="M162.887 172.332C162.887 172.332 157.851 165.54 156.394 163.507C154.937 161.473 153.481 161.565 152.515 162.148C151.549 162.732 146.987 166.315 147.279 167.482C147.57 168.648 150.092 174.388 150.476 175.156C150.664 175.572 150.963 175.928 151.34 176.186C151.718 176.443 152.159 176.591 152.614 176.614C153.58 176.614 154.454 174.572 154.454 174.572H155.988C155.988 174.572 157.835 178.555 159.867 179.43C161.257 179.957 162.75 180.154 164.229 180.006L166.069 182.53H174.118L162.887 172.332Z" fill="white" stroke="#263238" stroke-linecap="round" stroke-linejoin="round"/>
<path d="M151.058 175.831C150.85 175.575 150.721 175.263 150.687 174.935C150.653 174.606 150.715 174.275 150.867 173.981C151.35 172.823 152.906 170.49 153.289 170.49C153.673 170.49 157.069 170.298 157.069 170.298" stroke="#263238" stroke-linecap="round" stroke-linejoin="round"/>
<path d="M149.609 172.332C149.609 172.332 151.349 168.548 152.223 168.165C153.097 167.781 156.685 167.773 156.685 167.773" stroke="#263238" stroke-linecap="round" stroke-linejoin="round"/>
<path d="M148.344 169.715C148.344 169.715 150.475 165.64 151.74 165.448C152.931 165.312 154.129 165.246 155.328 165.249" stroke="#263238" stroke-linecap="round" stroke-linejoin="round"/>
<path d="M168.89 124.323H166.437C162.364 124.325 158.391 125.581 155.056 127.922C151.722 130.263 149.189 133.575 147.8 137.407L133.449 177.097C133.296 177.521 133.248 177.975 133.308 178.422C133.367 178.868 133.534 179.294 133.792 179.663C134.051 180.031 134.394 180.332 134.793 180.54C135.193 180.748 135.636 180.857 136.086 180.857H208.754C209.392 180.857 210.024 180.731 210.613 180.487C211.203 180.242 211.738 179.884 212.189 179.432C212.639 178.98 212.997 178.444 213.24 177.853C213.483 177.263 213.608 176.631 213.607 175.992V130.593C213.608 129.77 213.447 128.955 213.133 128.194C212.819 127.433 212.359 126.742 211.778 126.16C211.197 125.578 210.507 125.116 209.747 124.801C208.988 124.485 208.174 124.323 207.352 124.323H168.89Z" stroke="#263238" stroke-linecap="round" stroke-linejoin="round"/>
<path d="M220.767 129.235V177.02C220.767 178.105 221.198 179.146 221.964 179.913C222.731 180.68 223.77 181.111 224.854 181.111H263.952L252.452 141.973C251.273 137.952 249.007 134.335 245.905 131.521C241.876 127.861 236.671 125.768 231.232 125.62L224.639 125.444C224.135 125.432 223.633 125.522 223.164 125.708C222.694 125.893 222.267 126.17 221.906 126.524C221.546 126.877 221.259 127.298 221.064 127.764C220.868 128.23 220.767 128.729 220.767 129.235Z" fill="#757575"/>
<path d="M252.828 143.216L222.331 180.22C223.048 180.792 223.937 181.105 224.854 181.111H239.113L257.611 159.508L252.828 143.216Z" fill="white"/>
<path d="M262.135 174.918L259.704 166.637L248.105 181.111H256.669L262.135 174.918Z" fill="white"/>
<path d="M220.767 129.235V177.02C220.767 178.105 221.198 179.146 221.964 179.913C222.731 180.68 223.77 181.111 224.854 181.111H263.952L252.452 141.973C251.273 137.952 249.007 134.335 245.905 131.521V131.521C241.876 127.861 236.671 125.768 231.232 125.62L224.639 125.444C224.135 125.432 223.633 125.522 223.164 125.708C222.694 125.893 222.267 126.17 221.906 126.524C221.546 126.877 221.259 127.298 221.064 127.764C220.868 128.23 220.767 128.729 220.767 129.235V129.235Z" stroke="#263238" stroke-linecap="round" stroke-linejoin="round"/>
<path d="M160.457 125.252C157.557 126.169 154.906 127.743 152.711 129.851C150.516 131.959 148.836 134.544 147.8 137.407L133.449 177.097C133.296 177.521 133.248 177.975 133.308 178.422C133.367 178.868 133.534 179.294 133.792 179.663C134.051 180.031 134.394 180.332 134.793 180.54C135.193 180.748 135.636 180.857 136.086 180.857H160.457V125.252Z" stroke="#263238" stroke-linecap="round" stroke-linejoin="round"/>
<path d="M83.12 211.691C83.12 211.691 80.4751 213.595 80.4751 215.897C80.4751 218.199 82.0084 221.269 83.5416 221.783C85.0749 222.297 85.3815 220.056 85.3815 220.056C85.3815 220.056 83.2196 214.638 83.12 211.691Z" fill="#263238" stroke="#263238" stroke-linecap="round" stroke-linejoin="round"/>
<path d="M88.6076 188.958L86.3403 188.529C85.1629 188.306 84.028 189.081 83.8053 190.26L81.097 204.594C80.8743 205.772 81.6482 206.908 82.8256 207.131L85.0929 207.56C86.2702 207.783 87.4052 207.009 87.6279 205.83L90.3362 191.496C90.5589 190.317 89.7849 189.181 88.6076 188.958Z" fill="white" stroke="#263238" stroke-linecap="round" stroke-linejoin="round"/>
<path d="M286.437 199.528H284.651C282.673 199.528 281.07 201.133 281.07 203.112V213.341C281.07 215.321 282.673 216.925 284.651 216.925H286.437C288.414 216.925 290.017 215.321 290.017 213.341V203.112C290.017 201.133 288.414 199.528 286.437 199.528Z" fill="white" stroke="#263238" stroke-linecap="round" stroke-linejoin="round"/>
<path d="M109.729 251.458C122.927 251.458 133.625 240.749 133.625 227.538C133.625 214.328 122.927 203.618 109.729 203.618C96.5321 203.618 85.8336 214.328 85.8336 227.538C85.8336 240.749 96.5321 251.458 109.729 251.458Z" fill="#263238"/>
<path d="M108.71 197.226L109.729 227.538L94.527 202.598L108.71 197.226ZM126.725 251.297L109.737 227.507L112.98 257.666L126.725 251.297Z" fill="white"/>
<path d="M109.729 251.458C122.927 251.458 133.625 240.749 133.625 227.538C133.625 214.328 122.927 203.618 109.729 203.618C96.5321 203.618 85.8336 214.328 85.8336 227.538C85.8336 240.749 96.5321 251.458 109.729 251.458Z" stroke="#263238" stroke-linecap="round" stroke-linejoin="round"/>
<path d="M109.729 243.27C118.409 243.27 125.445 236.227 125.445 227.538C125.445 218.85 118.409 211.807 109.729 211.807C101.05 211.807 94.0134 218.85 94.0134 227.538C94.0134 236.227 101.05 243.27 109.729 243.27Z" fill="white" stroke="#263238" stroke-linecap="round" stroke-linejoin="round"/>
<path d="M109.729 238.919C116.008 238.919 121.098 233.824 121.098 227.538C121.098 221.253 116.008 216.158 109.729 216.158C103.45 216.158 98.3601 221.253 98.3601 227.538C98.3601 233.824 103.45 238.919 109.729 238.919Z" fill="white" stroke="#263238" stroke-linecap="round" stroke-linejoin="round"/>
<path d="M265.669 238.973C271.96 227.36 267.655 212.841 256.054 206.543C244.453 200.246 229.948 204.555 223.657 216.168C217.366 227.781 221.671 242.3 233.272 248.597C244.873 254.895 259.378 250.586 265.669 238.973Z" fill="#263238"/>
<path d="M273.205 217.37L244.656 227.538L263.821 205.468L273.205 217.37ZM227.207 250.951L244.671 227.538L216.95 239.77L227.207 250.951Z" fill="white"/>
<path d="M265.669 238.973C271.96 227.36 267.655 212.841 256.054 206.543C244.453 200.246 229.948 204.555 223.657 216.168C217.366 227.781 221.671 242.3 233.272 248.597C244.873 254.895 259.378 250.586 265.669 238.973Z" stroke="#263238" stroke-linecap="round" stroke-linejoin="round"/>
<path d="M258.907 234.162C262.564 226.283 259.147 216.927 251.276 213.266C243.404 209.606 234.059 213.025 230.401 220.905C226.744 228.784 230.161 238.14 238.032 241.8C245.904 245.461 255.249 242.041 258.907 234.162Z" fill="white" stroke="#263238" stroke-linecap="round" stroke-linejoin="round"/>
<path d="M247.811 238.454C253.845 236.716 257.33 230.411 255.594 224.371C253.858 218.331 247.559 214.843 241.525 216.58C235.49 218.318 232.006 224.623 233.742 230.664C235.478 236.704 241.777 240.192 247.811 238.454Z" fill="white" stroke="#263238" stroke-linecap="round" stroke-linejoin="round"/>
<path d="M137.052 176.061C138.9 180.151 139.352 183.958 137.987 184.564C136.623 185.17 134.07 182.338 132.222 178.248C130.375 174.158 129.922 170.344 131.287 169.738C132.652 169.131 135.197 171.963 137.052 176.061Z" fill="#263238" stroke="#263238" stroke-linecap="round" stroke-linejoin="round"/>
<path d="M0.782593 251.458L366.783 251.458" stroke="#263238" stroke-linecap="round" stroke-linejoin="round"/>
</svg>
